<svg width="24" height="36" xmlns="http://www.w3.org/2000/svg"><path d="M20.725 15.171c1.417-1.968 2.755-3.827 2.755-5.71 0-2.49-1.198-4.88-3.33-6.64C18.017 1.06 15.125.07 12.11.07c-3.018 0-5.91.99-8.042 2.75C1.936 4.58.739 6.97.739 9.46c0 1.883 1.337 3.742 2.755 5.71 1.273 1.77 2.59 3.6 2.93 5.483v1.718h-.71a.793.793 0 00-.503.172.54.54 0 00-.209.415v1.76c0 .134.055.263.156.367l1.923 1.986c-.407.006-.804.11-1.142.297a1.877 1.877 0 00-.764.762c-.161.309-.21.65-.143.982.068.331.25.64.525.889a1.66 1.66 0 00-.512.832 1.46 1.46 0 00.08.93c.128.3.352.564.649.765.296.202.653.333 1.033.38l2.668 2.203c.133.11.314.171.502.171h4.264c.189 0 .37-.061.503-.172l2.668-2.203c.38-.046.736-.177 1.033-.379a1.79 1.79 0 00.649-.764 1.46 1.46 0 00.08-.931 1.66 1.66 0 00-.512-.832 1.65 1.65 0 00.524-.89 1.472 1.472 0 00-.142-.981 1.877 1.877 0 00-.765-.762 2.44 2.44 0 00-1.142-.297l1.923-1.986a.527.527 0 00.156-.366v-1.761a.54.54 0 00-.208-.415.793.793 0 00-.503-.172h-.71v-1.718c.34-1.884 1.656-3.712 2.93-5.482zM13.947 34.11h-3.676L8.85 32.936h6.518l-1.421 1.174zm3.137-2.348h-9.95a.794.794 0 01-.502-.172.54.54 0 01-.208-.415.54.54 0 01.208-.415.793.793 0 01.502-.172h9.95c.189 0 .37.062.503.172a.54.54 0 01.208.415.54.54 0 01-.209.415.793.793 0 01-.502.172zm.71-2.934a.54.54 0 01-.207.415.793.793 0 01-.503.172h-9.95a.793.793 0 01-.502-.172.54.54 0 01-.208-.415.54.54 0 01.208-.415.794.794 0 01.502-.172h9.95c.189 0 .37.062.503.172a.54.54 0 01.208.415zm0-4.314l-2.473 2.553H8.898l-2.473-2.553v-.968h11.37v.968zm-6.515-5.987l-1.302-1.613v-.998h4.264v.998l-1.302 1.613a.52.52 0 00-.12.324v3.521H11.4v-3.521a.52.52 0 00-.12-.326v.002zm5.101 2.003a.47.47 0 00-.007.081v1.761h-2.132v-3.345l1.302-1.613a.52.52 0 00.12-.324v-1.174h.71a2.47 2.47 0 001.185-.296 1.89 1.89 0 00.785-.79c.161-.322.204-.676.121-1.018a1.693 1.693 0 00-.583-.901 2.303 2.303 0 00-1.092-.482 2.554 2.554 0 00-1.232.1c-.39.133-.722.359-.956.648-.235.29-.36.63-.36.979v.586H9.977v-.586c0-.349-.125-.69-.36-.979a2.097 2.097 0 00-.956-.648 2.554 2.554 0 00-1.232-.1 2.303 2.303 0 00-1.091.482c-.299.246-.502.56-.584.901a1.48 1.48 0 00.121 1.017c.162.322.435.597.786.79.35.194.762.297 1.184.297h.71v1.174c.001.116.043.23.12.326l1.302 1.61v3.346H7.845v-1.76a.47.47 0 00-.007-.084c-.368-2.13-1.769-4.075-3.123-5.956C3.401 12.747 2.16 11.02 2.16 9.46c0-2.179 1.048-4.269 2.914-5.81C6.94 2.11 9.47 1.245 12.109 1.245c2.639 0 5.17.866 7.036 2.407 1.866 1.54 2.914 3.63 2.914 5.81 0 1.56-1.242 3.286-2.559 5.11-1.35 1.882-2.752 3.827-3.12 5.957v.002zm-.717-5.788v-.586c0-.117.041-.23.12-.327a.699.699 0 01.318-.216.85.85 0 01.41-.033.766.766 0 01.365.16c.1.083.167.187.194.301a.493.493 0 01-.04.34.628.628 0 01-.262.263.822.822 0 01-.395.098h-.71zm-7.107-.586v.586h-.71a.822.822 0 01-.396-.098.628.628 0 01-.261-.264.493.493 0 01-.04-.339.564.564 0 01.194-.3.766.766 0 01.363-.161.85.85 0 01.411.033c.13.045.24.12.319.216a.52.52 0 01.12.327z"/></svg>