<svg width="23" height="34" xmlns="http://www.w3.org/2000/svg"><path d="M22.464 2.868h-.304V1.32c0-.284-.157-.515-.352-.515h-2.715c-.194 0-.351.23-.351.515v1.548h-.398c-.194 0-.352.23-.352.516v1.65c0 .285.158.516.352.516h.398v1.547c0 .285.157.516.35.516.195 0 .352-.23.352-.516V5.55h2.013v7.462c0 3.129-1.733 5.674-3.863 5.674H14.95V15.59h2.74c.967 0 1.755-1.157 1.755-2.58V9.849c0-.285-.157-.515-.351-.515-.194 0-.351.23-.351.515v3.164c0 .853-.473 1.547-1.054 1.547H14.95v-.722c0-.285-.157-.515-.351-.515h-1.124c-.194 0-.351.23-.351.515v.722h-.796v-3.645h.377c.153.793.65 1.376 1.238 1.376.71 0 1.288-.849 1.288-1.891 0-1.043-.578-1.892-1.288-1.892-.588 0-1.085.583-1.238 1.376h-1.456c-.154-.793-.65-1.376-1.239-1.376-.71 0-1.287.849-1.287 1.892 0 1.042.577 1.89 1.287 1.89.588 0 1.085-.582 1.239-1.375h.377v3.645h-.796v-.722c0-.285-.158-.515-.352-.515H9.354c-.194 0-.352.23-.352.515v.722H6.076c-2.517 0-4.565 3.008-4.565 6.706v2.338c0 .285.157.516.35.516.195 0 .352-.231.352-.516v-2.338c0-3.129 1.733-5.674 3.863-5.674h2.926v3.095h-3.02c-.968 0-1.756 1.157-1.756 2.579v7.875H2.213v-2.786c0-.285-.157-.516-.351-.516-.194 0-.351.231-.351.516v2.786h-.398c-.194 0-.351.23-.351.515v1.65c0 .286.157.517.35.517h.399v1.547c0 .285.157.516.351.516h2.716c.194 0 .35-.231.35-.516v-1.547h.305c.194 0 .351-.231.351-.516v-1.65c0-.286-.157-.516-.35-.516h-.305v-7.875c0-.853.473-1.547 1.053-1.547h3.02v.721c0 .285.158.516.352.516h1.123c.194 0 .352-.23.352-.515v-.723h2.294v.723c0 .284.157.515.351.515h1.124c.194 0 .35-.23.35-.515v-.723h2.646c2.518 0 4.566-3.008 4.566-6.705V5.55h.304c.194 0 .351-.23.351-.516v-1.65c0-.285-.157-.516-.351-.516zm-8.522 6.67c.323 0 .586.387.586.86 0 .475-.263.86-.586.86-.322 0-.585-.385-.585-.86 0-.473.263-.86.585-.86zm-3.933 1.72c-.323 0-.585-.385-.585-.86 0-.473.262-.86.585-.86.323 0 .585.387.585.86 0 .475-.262.86-.585.86zM4.227 32.853H2.213v-1.031h2.014v1.031zm.655-2.063H1.464v-.619h3.418v.62zm5.244-10.866h-.421v-5.57h.421v5.57zm2.997-1.238h-2.294V15.59h2.294v3.095zm1.124 1.238h-.422v-5.57h.422v5.57zm5.197-18.088h2.013v1.032h-2.013V1.836zm2.669 2.682h-3.418V3.9h3.418v.618z"/></svg>