<svg width="116" height="97" fill="none" xmlns="http://www.w3.org/2000/svg"><g clip-path="url(#clip0)" filter="url(#filter0_d)"><path d="M97.676 10.003c0-4.091-3.335-7.439-7.411-7.439h-64.23c-4.075 0-7.41 3.348-7.41 7.44v52.073h79.05V10.003zm-9.882 42.155H28.507V12.483h59.288v39.675z" fill="url(#paint0_linear)" fill-opacity=".9"/><path d="M87.794 52.981h.824V11.66H27.683v41.321h60.111zm2.47-49.594c3.62 0 6.588 2.976 6.588 6.616v51.25H19.448v-51.25c0-3.64 2.97-6.616 6.588-6.616h64.229z" stroke="url(#paint1_linear)" stroke-opacity=".4" stroke-width="1.647"/><path d="M48.12 43.115a2.464 2.464 0 003.493 0l1.746-1.753a2.486 2.486 0 000-3.507l-5.515-5.534 5.514-5.536a2.486 2.486 0 000-3.508l-1.746-1.753a2.464 2.464 0 00-3.494 0l-9.008 9.042a2.486 2.486 0 000 3.507l9.01 9.042zm14.823-1.751l1.746 1.753a2.464 2.464 0 003.494 0l9.007-9.042a2.486 2.486 0 000-3.507l-9.007-9.042a2.464 2.464 0 00-3.494 0l-1.746 1.753a2.487 2.487 0 000 3.507l5.513 5.535-5.513 5.535a2.486 2.486 0 000 3.508z" fill="url(#paint2_linear)" fill-opacity=".9"/><path d="M48.41 42.824h0l-9.008-9.041s0 0 0 0a2.075 2.075 0 010-2.926l9.007-9.042a2.052 2.052 0 012.91 0l1.747 1.753a2.075 2.075 0 010 2.926h0l-5.513 5.536-.29.29.29.291 5.515 5.534a2.075 2.075 0 010 2.926l-1.747 1.753a2.052 2.052 0 01-2.91 0zm20.338-10.213l.29-.29-.29-.291-5.514-5.535a2.075 2.075 0 010-2.926l1.747-1.752a2.052 2.052 0 012.91 0l9.008 9.041a2.075 2.075 0 010 2.926l-9.008 9.042a2.052 2.052 0 01-2.91 0l-1.747-1.753a2.075 2.075 0 010-2.926h0l5.514-5.536z" stroke="url(#paint3_linear)" stroke-opacity=".4" stroke-width=".823"/><path d="M105.087 67.036H67.652c-.114 3.07-2.271 4.96-5.055 4.96H53.21c-2.886 0-5.099-2.708-5.06-4.96H11.214a2.482 2.482 0 00-2.47 2.48v2.48c0 5.455 4.446 9.918 9.88 9.918h79.052c5.435 0 9.881-4.463 9.881-9.918v-2.48a2.482 2.482 0 00-2.47-2.48z" fill="url(#paint4_linear)" fill-opacity=".9"/><path d="M11.214 67.86h36.178c.19 1.11.775 2.203 1.594 3.067 1.035 1.09 2.515 1.892 4.224 1.892h9.387c1.58 0 3.026-.539 4.096-1.555.904-.858 1.504-2.024 1.71-3.404h36.684c.901 0 1.647.744 1.647 1.656v2.48c0 5.003-4.081 9.095-9.058 9.095H18.625c-4.977 0-9.058-4.092-9.058-9.095v-2.48c0-.912.746-1.656 1.647-1.656z" stroke="url(#paint5_linear)" stroke-opacity=".4" stroke-width="1.647"/></g><defs><linearGradient id="paint0_linear" x1="78.415" y1="-30.459" x2="78.415" y2="105.192" gradientUnits="userSpaceOnUse"><stop stop-color="#F53B3B"/><stop offset="1" stop-color="#FB6544"/></linearGradient><linearGradient id="paint1_linear" x1="78.621" y1="-3.169" x2="78.621" y2="81.915" gradientUnits="userSpaceOnUse"><stop stop-color="#E74544"/><stop offset="1" stop-color="#fff" stop-opacity=".14"/></linearGradient><linearGradient id="paint2_linear" x1="44.9" y1=".027" x2="37.036" y2="72.501" gradientUnits="userSpaceOnUse"><stop stop-color="#1256BC"/><stop offset="1" stop-color="#44F0FB"/></linearGradient><linearGradient id="paint3_linear" x1="35.502" y1="-19.959" x2="35.502" y2="52.498" gradientUnits="userSpaceOnUse"><stop stop-color="#E74544"/><stop offset="1" stop-color="#fff" stop-opacity=".14"/></linearGradient><linearGradient id="paint4_linear" x1="8.413" y1="56.855" x2="8.413" y2="107.46" gradientUnits="userSpaceOnUse"><stop stop-color="#F5AB3B"/><stop offset="1" stop-color="#FB6544"/></linearGradient><linearGradient id="paint5_linear" x1="8.743" y1="67.036" x2="8.743" y2="98.776" gradientUnits="userSpaceOnUse"><stop stop-color="#E74544"/><stop offset="1" stop-color="#fff" stop-opacity=".14"/></linearGradient><clipPath id="clip0"><path fill="#fff" transform="translate(8.743 2.564)" d="M0 0h98.814v79.35H0z"/></clipPath><filter id="filter0_d" x=".509" y=".917" width="115.283" height="95.819" filterUnits="userSpaceOnUse" color-interpolation-filters="sRGB"><feFlood flood-opacity="0" result="BackgroundImageFix"/><feColorMatrix in="SourceAlpha" values="0 0 0 0 0 0 0 0 0 0 0 0 0 0 0 0 0 0 127 0" result="hardAlpha"/><feOffset dy="6.588"/><feGaussianBlur stdDeviation="4.117"/><feColorMatrix values="0 0 0 0 0.334444 0 0 0 0 0.0410466 0 0 0 0 0.0238889 0 0 0 0.25 0"/><feBlend in2="BackgroundImageFix" result="effect1_dropShadow"/><feBlend in="SourceGraphic" in2="effect1_dropShadow" result="shape"/></filter></defs></svg>