<svg width="69" height="68" fill="none" xmlns="http://www.w3.org/2000/svg"><g opacity=".8" clip-path="url(#clip0)"><path d="M54.371 34c0 6.12-2.776 11.787-7.565 15.583-1.955 1.53-3.23 3.542-3.626 5.695l-.142-.028h-17l-.198.028c-.397-2.238-1.559-4.193-3.23-5.44-6.177-4.675-9.067-12.325-7.48-20.031 1.558-7.509 7.65-13.629 15.158-15.187 5.978-1.275 12.098.198 16.745 3.967A19.755 19.755 0 0154.371 34z" fill="#E38E3F"/><path d="M34.535 14.17c-1.408 0-2.83.147-4.247.45-7.508 1.558-13.6 7.678-15.158 15.187-1.587 7.706 1.303 15.356 7.48 20.031 1.671 1.247 2.833 3.202 3.23 5.44l.198-.028h8.5V14.17h-.003z" fill="#E0842E"/><path d="M43.18 55.278a8.38 8.38 0 00-.142 1.474v6.29c0 2.72-2.238 4.958-4.958 4.958h-7.084c-2.38 0-4.958-1.813-4.958-5.78v-5.015c0-.652-.057-1.303-.198-1.927l.198-.028h17l.142.028z" fill="#4F4F7D"/><path d="M34.538 55.25h-8.5l-.198.028c.141.624.198 1.275.198 1.927v5.015c0 3.967 2.578 5.78 4.958 5.78h3.542V55.25z" fill="#39395B"/><path d="M45.163 35.417a2.126 2.126 0 01-2.125-2.125c0-4.299-3.494-7.792-7.792-7.792a2.126 2.126 0 010-4.25c6.639 0 12.042 5.403 12.042 12.042a2.126 2.126 0 01-2.125 2.125z" fill="#FFD54F"/><path d="M33.79 23.364c-.218 0-.442.003-.669.011 0 1.173.952 2.125 2.125 2.125 4.298 0 7.792 3.494 7.792 7.792 0 1.173.952 2.125 2.125 2.125s1.572-12.053-11.373-12.053z" fill="#DEB945"/><path opacity=".7" d="M57.932 17.362a1.693 1.693 0 01-1.196-2.891l3.124-3.124a1.694 1.694 0 012.395 2.395l-3.124 3.123c-.332.33-.765.497-1.199.497zm-47.512 0a1.693 1.693 0 001.196-2.891l-3.123-3.124a1.694 1.694 0 00-2.395 2.395l3.124 3.123c.331.33.765.497 1.198.497zM66.812 36.17h-4.505c-.953 0-1.727-.648-1.727-1.447 0-.798.774-1.446 1.727-1.446h4.505c.953 0 1.726.648 1.726 1.446 0 .8-.773 1.447-1.726 1.447zM35.623 2.812v4.504c0 .953-.648 1.727-1.447 1.727-.798 0-1.447-.774-1.447-1.727V2.812c0-.953.649-1.727 1.447-1.727.799 0 1.447.774 1.447 1.727zM2.264 36.17H6.77c.953 0 1.726-.648 1.726-1.447 0-.798-.773-1.446-1.726-1.446H2.264c-.953 0-1.726.648-1.726 1.446 0 .8.773 1.447 1.726 1.447zm58.792 19.532a1.68 1.68 0 01-1.196-.496l-3.124-3.124a1.693 1.693 0 112.395-2.395l3.124 3.124a1.693 1.693 0 01-1.199 2.891zm-53.76 0a1.68 1.68 0 001.197-.496l3.123-3.124a1.693 1.693 0 10-2.394-2.395l-3.124 3.124a1.693 1.693 0 001.198 2.891z" fill="#E38E3F"/></g><defs><clipPath id="clip0"><path fill="#fff" transform="translate(.538)" d="M0 0h68v68H0z"/></clipPath></defs></svg>