<svg width="100" height="96" fill="none" xmlns="http://www.w3.org/2000/svg"><g clip-path="url(#clip0)"><path d="M55.327 54.413l9.257-34.547c.373-1.39 1.9-2.206 3.224-1.642 16.693 7.1 25.893 25.811 20.409 43.811-5.634 18.486-25.796 29.48-44.398 24.245a35.893 35.893 0 01-17.975-11.687c-.932-1.123-.554-2.837.71-3.567l28.773-16.613z" fill="url(#paint0_linear)" fill-opacity=".9"/><path d="M56.123 54.627l-.089.329-.295.17L26.967 71.74l-.39-.675.39.675c-.862.498-1.067 1.631-.49 2.329h.001a35.07 35.07 0 0017.564 11.42c18.172 5.114 37.884-5.636 43.387-23.693 5.36-17.589-3.63-35.874-19.943-42.813h0c-.827-.352-1.853.151-2.107 1.097l-9.256 34.547z" stroke="url(#paint1_linear)" stroke-opacity=".4" stroke-width="1.647"/><path d="M10.755 42.797l34.547 9.257L16.13 68.897c-1.115.643-2.582.327-3.257-.767-4.212-6.818-6.17-15.012-5.152-23.36.174-1.43 1.644-2.346 3.034-1.973z" fill="url(#paint2_linear)" fill-opacity=".9"/><path d="M8.538 44.869h0c-.995 8.157.918 16.164 5.035 22.828.425.688 1.387.924 2.145.487l27.45-15.85-32.626-8.742c-.946-.253-1.895.384-2.004 1.277z" stroke="url(#paint3_linear)" stroke-opacity=".4" stroke-width="1.647"/><path d="M15.93 33.746C21.79 16.675 39.414 6.5 57.128 9.96c1.352.264 2.17 1.684 1.813 3.014l-8.729 32.578-32.578-8.73c-1.331-.356-2.15-1.774-1.702-3.077z" fill="url(#paint4_linear)" fill-opacity=".9"/><path d="M16.71 34.013h0c-.282.82.232 1.773 1.136 2.015l31.783 8.516 8.516-31.782c.242-.905-.327-1.827-1.176-1.992h0c-17.31-3.382-34.533 6.561-40.26 23.243z" stroke="url(#paint5_linear)" stroke-opacity=".4" stroke-width="1.647"/><path d="M33.334 34.568l4.302-2.4-.53-.95-2.733 1.525-.024-.043.468-1.704c.566-1.85.585-2.609.19-3.317-.586-1.05-1.87-1.343-3.133-.638-1.244.694-1.696 1.959-1.03 3.15l1.081-.603c-.357-.64-.177-1.268.448-1.616.598-.334 1.246-.217 1.576.374.292.524.182 1.076-.086 2.05l-.987 3.351.458.821zm7.589-4.122c1.327-.74 1.75-2.158 1.053-3.405-.673-1.207-1.998-1.609-3.138-.973-.509.284-.846.738-.925 1.143l-.037.02-.748-1.764 2.7-1.506-.53-.95-3.64 2.031 1.477 3.419 1.12-.404c.082-.351.393-.73.772-.937.691-.382 1.471-.15 1.865.563.394.7.19 1.47-.482 1.844-.567.316-1.223.212-1.55-.28l-1.104.615c.612 1.025 1.941 1.268 3.167.584zm5.93-4.965c.41.728 1.22 1.092 2.08.611.858-.478.983-1.364.573-2.091l-.185-.331c-.407-.737-1.21-1.097-2.08-.611-.85.473-.977 1.36-.573 2.091l.184.331zm-5.194-1.81c.41.727 1.216 1.085 2.08.602.855-.477.987-1.35.573-2.084l-.184-.33c-.408-.738-1.211-1.097-2.078-.613-.846.472-.983 1.356-.576 2.093l.185.331zm2.936 4.613l.77-.429.812-8.683-.77.43-.812 8.682zm2.873-3.58c-.179-.326-.224-.731.162-.947.405-.225.707.036.886.362l.184.331c.184.323.232.719-.16.938-.392.218-.705-.033-.888-.353l-.184-.33zM42.28 22.89c-.177-.324-.23-.728.16-.945.404-.226.704.037.882.363l.184.331c.185.323.236.717-.157.936-.392.219-.7-.031-.884-.354l-.185-.331z" fill="#fff" fill-opacity=".8"/></g><defs><linearGradient id="paint0_linear" x1="66.097" y1="-13.267" x2="34.253" y2="105.578" gradientUnits="userSpaceOnUse"><stop stop-color="#F53B3B"/><stop offset="1" stop-color="#FB6544"/></linearGradient><linearGradient id="paint1_linear" x1="59.574" y1="10.611" x2="39.601" y2="85.153" gradientUnits="userSpaceOnUse"><stop stop-color="#E74544"/><stop offset="1" stop-color="#fff" stop-opacity=".14"/></linearGradient><linearGradient id="paint2_linear" x1="44.946" y1="29.056" x2="33.91" y2="105.812" gradientUnits="userSpaceOnUse"><stop stop-color="#1256BC"/><stop offset="1" stop-color="#44F0FB"/></linearGradient><linearGradient id="paint3_linear" x1="59.231" y1="10.846" x2="39.258" y2="85.388" gradientUnits="userSpaceOnUse"><stop stop-color="#E74544"/><stop offset="1" stop-color="#fff" stop-opacity=".14"/></linearGradient><linearGradient id="paint4_linear" x1="66.097" y1="-13.267" x2="34.253" y2="105.578" gradientUnits="userSpaceOnUse"><stop stop-color="#F5AB3B"/><stop offset="1" stop-color="#FB6544"/></linearGradient><linearGradient id="paint5_linear" x1="59.574" y1="10.611" x2="39.601" y2="85.153" gradientUnits="userSpaceOnUse"><stop stop-color="#E74544"/><stop offset="1" stop-color="#fff" stop-opacity=".14"/></linearGradient><clipPath id="clip0"><path fill="#fff" transform="scale(-1 1) rotate(-15 31.01 387.264)" d="M0 0h81.995v77.172H0z"/></clipPath></defs></svg>