<svg width="108" height="108" fill="none" xmlns="http://www.w3.org/2000/svg"><rect x="20.833" y="1.351" width="88" height="88" rx="19" transform="rotate(12.79 20.833 1.35)" fill="url(#paint0_linear)" fill-opacity=".9" stroke="url(#paint1_linear)" stroke-width="2"/><g clip-path="url(#clip0)"><mask id="path-2-inside-1" fill="#fff"><path d="M71.11 39.581L47.486 28.764s-3.44-3.058-6.582.684c-1.297 1.544-1.579 3.27-1.579 3.27l-5.915 36.71c-.472 3.4 3.666 4.498 3.666 4.498l31.573 7.904-.124-1.555c.66-1.187 2.135-3.175 4.705-3.419.057-.005.099-.044.149-.07l.959.315-3.228-37.518zm-22.124 5.79l1.11-8.343 17.694 7.714.336 7.563-19.14-6.935zM69.524 77.6a8.02 8.02 0 00-.866.898l-20.572-5.373 20.022 6.134c-.081.127-.165.252-.234.37L41.37 72.9l26.083 7.535-.026.054-29.478-7.603c-.016-.002-1.404-.298-2.366-1.106-.95-.798-1.133-1.784-.56-3.014 1.472-3.162 6.643-1.31 6.721-1.282l29.737 8.883a6.143 6.143 0 00-1.087.573l-19.32-5.112 18.45 5.773z"/></mask><path d="M71.11 39.581L47.486 28.764s-3.44-3.058-6.582.684c-1.297 1.544-1.579 3.27-1.579 3.27l-5.915 36.71c-.472 3.4 3.666 4.498 3.666 4.498l31.573 7.904-.124-1.555c.66-1.187 2.135-3.175 4.705-3.419.057-.005.099-.044.149-.07l.959.315-3.228-37.518zm-22.124 5.79l1.11-8.343 17.694 7.714.336 7.563-19.14-6.935zM69.524 77.6a8.02 8.02 0 00-.866.898l-20.572-5.373 20.022 6.134c-.081.127-.165.252-.234.37L41.37 72.9l26.083 7.535-.026.054-29.478-7.603c-.016-.002-1.404-.298-2.366-1.106-.95-.798-1.133-1.784-.56-3.014 1.472-3.162 6.643-1.31 6.721-1.282l29.737 8.883a6.143 6.143 0 00-1.087.573l-19.32-5.112 18.45 5.773z" fill="#9DA2C8"/><path d="M71.11 39.581l.996-.085-.05-.581-.53-.243-.416.91zM47.486 28.764l-.664.748.111.1.137.062.416-.91zm-8.16 3.954l-.988-.16v.001l.987.16zm-5.916 36.71l-.987-.158-.002.01-.001.011.99.138zm3.666 4.498l-.257.967.007.002.007.001.243-.97zm31.573 7.904l-.243.97 1.35.338-.11-1.387-.997.08zm-.124-1.555l-.874-.486-.147.264.024.302.997-.08zm4.705-3.419l.094.996h.004l-.098-.996zm.149-.07l.311-.95-.397-.13-.373.192.459.889zm.959.315l-.312.95 1.438.472-.13-1.507-.996.085zM50.097 37.028l.4-.917-1.216-.53-.176 1.315.992.132zm17.693 7.714l1-.045-.028-.623-.572-.249-.4.917zm.336 7.563l-.34.94 1.406.51-.067-1.495-.999.045zm.532 26.194l-.252.968.623.163.406-.5-.777-.63zm-20.572-5.373l.253-.967-.546 1.923.293-.956zm20.022 6.134l.84.543.718-1.111-1.265-.388-.293.956zm-.234.37l-.246.97.731.186.38-.652-.865-.503zM41.37 72.9l.246-.969-.523 1.93.277-.96zm26.083 7.535l.902.431.509-1.064-1.134-.328-.278.96zm-.026.054l-.25.968.797.206.355-.743-.902-.431zm-29.478-7.603l.25-.969-.061-.015-.062-.008-.127.992zm-2.926-4.12l.907.422-.907-.422zm6.721-1.282l-.344.938.028.011.03.009.286-.958zm29.737 8.883l.365.931 2.703-1.058-2.782-.83-.286.957zm-1.087.573l-.255.966.425.113.371-.238-.54-.841zm-19.32-5.112l.256-.967-.554 1.921.298-.954zm20.452-33.156L47.902 27.854l-.832 1.819L70.693 40.49l.833-1.819zm-24.04-9.909l.664-.748h-.001l-.002-.002a.435.435 0 01-.005-.005l-.014-.012a3.962 3.962 0 00-.19-.152 6.297 6.297 0 00-.515-.352 6.288 6.288 0 00-1.819-.763 4.95 4.95 0 00-2.645.079c-.971.304-1.93.936-2.82 1.996l1.53 1.286c.682-.81 1.331-1.2 1.888-1.374a2.951 2.951 0 011.586-.04c.493.116.922.33 1.233.52a4.278 4.278 0 01.447.316c-.001-.001-.001-.001.663-.749zm-7.348.04a8.573 8.573 0 00-1.793 3.715l-.004.024-.002.008v.006l.986.161.987.162v-.002a2.306 2.306 0 01.047-.21 6.572 6.572 0 011.31-2.577l-1.53-1.286zm-1.8 3.755l-5.915 36.71 1.975.319 5.914-36.71-1.974-.319zM32.42 69.29c-.307 2.209.923 3.656 2.063 4.473a7.824 7.824 0 002.264 1.108l.048.014.015.004.005.002a.029.029 0 01.003 0l.258-.966a139.732 139.732 0 01.258-.966h-.001l-.022-.006a5.833 5.833 0 01-.495-.177 5.834 5.834 0 01-1.167-.638c-.81-.581-1.413-1.383-1.248-2.573l-1.981-.275zm4.413 5.605L68.406 82.8l.486-1.94-31.574-7.904-.485 1.94zm32.813 6.855l-.124-1.555-1.994.159.124 1.555 1.994-.16zm-.247-.99c.617-1.108 1.864-2.714 3.925-2.91l-.189-1.99c-3.079.292-4.779 2.661-5.484 3.928l1.748.972zm3.929-2.91a1.192 1.192 0 00.517-.179l.014-.008.008-.005-.03.017-.917-1.778c-.048.025-.088.05-.102.058a.81.81 0 01.314-.095l.196 1.99zm-.261-.114l.959.314.623-1.9-.959-.314-.623 1.9zm2.267-.721l-3.228-37.52-1.992.172 3.227 37.519 1.993-.171zM49.977 45.502l1.11-8.342-1.982-.264-1.11 8.342 1.982.264zm-.28-7.558l17.694 7.714.8-1.833-17.695-7.714-.799 1.833zm17.094 6.842l.336 7.563 1.998-.088-.336-7.564-1.998.09zm1.676 6.579l-19.14-6.935-.682 1.88 19.14 6.935.682-1.88zm.39 25.492a9.01 9.01 0 00-.975 1.012l1.553 1.26c.209-.257.464-.52.757-.784l-1.336-1.488zm.054.675l-20.572-5.373-.506 1.935 20.573 5.373.505-1.935zm-21.118-3.45l20.022 6.135.586-1.913L48.38 72.17l-.586 1.912zm19.475 4.636c-.07.109-.174.265-.258.41l1.729 1.006c.053-.092.117-.188.21-.33l-1.68-1.086zm.852-.056l-26.504-6.73-.492 1.938 26.504 6.73.492-1.938zm-27.027-4.8l26.082 7.534.555-1.922-26.082-7.534-.555 1.922zm25.457 6.141l-.025.055 1.804.862.026-.054-1.805-.863zm1.126-.482l-29.478-7.604-.5 1.937 29.479 7.603.5-1.936zm-29.6-7.627c.064.008.106.02.038.004a6.052 6.052 0 01-.644-.2c-.417-.156-.886-.383-1.244-.684l-1.286 1.532c.604.507 1.31.831 1.83 1.026a8.105 8.105 0 00.88.271 1.6 1.6 0 00.172.035l.254-1.984zm-1.85-.88c-.34-.285-.47-.538-.511-.762-.044-.235-.014-.573.215-1.064l-1.813-.844c-.345.74-.51 1.509-.369 2.273.144.777.58 1.415 1.192 1.929l1.286-1.532zm-.296-1.826c.463-.996 1.54-1.327 2.928-1.26a9.43 9.43 0 011.77.27c.478.118.78.228.772.224l.689-1.877a11.845 11.845 0 00-3.135-.615c-1.584-.076-3.83.248-4.837 2.414l1.813.844zm5.528-.746l29.737 8.884.572-1.917-29.737-8.884-.572 1.917zm29.659 6.994a7.14 7.14 0 00-1.263.662l1.081 1.683c.305-.196.597-.36.91-.483l-.728-1.862zm-.467.537L51.33 70.86l-.511 1.933 19.32 5.112.511-1.933zm-19.874-3.191l18.45 5.773.597-1.909-18.45-5.773-.597 1.909z" fill="#6668AA" mask="url(#path-2-inside-1)"/></g><defs><linearGradient id="paint0_linear" x1="64.947" y1="-28.714" x2="64.947" y2="114.777" gradientUnits="userSpaceOnUse"><stop stop-color="#4C5E9D"/><stop offset="1" stop-color="#171836"/></linearGradient><linearGradient id="paint1_linear" x1="65.079" y1=".154" x2="65.079" y2="90.154" gradientUnits="userSpaceOnUse"><stop stop-color="#3F458D" stop-opacity=".63"/><stop offset="1" stop-color="#3F458D" stop-opacity=".14"/></linearGradient><clipPath id="clip0"><path fill="#fff" transform="rotate(40.028 4.705 76.944)" d="M0 0h60v60H0z"/></clipPath></defs></svg>