<svg width="66" height="66" fill="none" xmlns="http://www.w3.org/2000/svg"><circle cx="32.708" cy="32.708" r="23.5" transform="rotate(119.509 32.708 32.708)" stroke="url(#paint0_linear)"/><circle cx="53.5" cy="16.5" r=".5" fill="#6ABC9C"/><circle cx="49" cy="12" r="1" fill="#6ABC9C"/><circle cx="50.5" cy="23.5" r=".5" fill="#6ABC9C"/><circle cx="11.5" cy="45.5" r=".5" fill="#6ABC9C"/><circle cx="14" cy="39" r="1" fill="#6ABC9C"/><circle cx="6.5" cy="40.5" r=".5" fill="#6ABC9C"/><g clip-path="url(#clip0)"><path d="M35.142 30.243c.144 0 .282.023.415.061l2.485-3.045a.457.457 0 01.645-.067.445.445 0 01.057.625l-2.457 3.012c.167.23.267.515.267.822 0 .572-.343 1.066-.833 1.286h9.639a.64.64 0 00.64-.64V24.19a.64.64 0 00-.64-.64H33.116a.64.64 0 00-.64.64v5.323l.579.732h2.087v-.002z" fill="url(#paint1_linear)"/><path d="M27.156 26.744a2.623 2.623 0 100-5.246 2.623 2.623 0 000 5.246z" fill="url(#paint2_linear)"/><path d="M29.845 43.861a.64.64 0 01-.64.64H28.13a.64.64 0 01-.64-.64v-5.368a.343.343 0 00-.687 0v5.343c0 .366-.3.666-.665.666h-1.053a.64.64 0 01-.64-.64L24.438 30.9a.318.318 0 10-.635 0v4.984a.64.64 0 01-.64.64h-.523a.64.64 0 01-.64-.64v-6.833c0-.812.658-1.468 1.468-1.468H29.3c.625 0 1.216.287 1.606.776l1.567 1.977.33.418s1.486 0 2.342.003a.64.64 0 01.64.64v.51a.64.64 0 01-.64.64h-2.772a.892.892 0 01-.701-.34l-1.168-1.502a.32.32 0 00-.251-.123h-.08a.318.318 0 00-.317.318l-.01 12.96z" fill="url(#paint3_linear)"/></g><defs><linearGradient id="paint0_linear" x1="32.708" y1="8.708" x2="32.708" y2="56.708" gradientUnits="userSpaceOnUse"><stop stop-color="#4DB88D"/><stop offset="1" stop-color="#2C2E59"/></linearGradient><linearGradient id="paint1_linear" x1="39.238" y1="23.55" x2="39.238" y2="32.937" gradientUnits="userSpaceOnUse"><stop stop-color="#4DB68D"/><stop offset="1" stop-color="#8CC3AE"/></linearGradient><linearGradient id="paint2_linear" x1="27.156" y1="21.498" x2="27.156" y2="26.744" gradientUnits="userSpaceOnUse"><stop stop-color="#4DB68D"/><stop offset="1" stop-color="#8CC3AE"/></linearGradient><linearGradient id="paint3_linear" x1="28.893" y1="27.584" x2="28.893" y2="44.502" gradientUnits="userSpaceOnUse"><stop stop-color="#4DB68D"/><stop offset="1" stop-color="#8CC3AE"/></linearGradient><clipPath id="clip0"><path fill="#fff" transform="translate(22 21)" d="M0 0h24v24H0z"/></clipPath></defs></svg>