<svg width="30" height="30" xmlns="http://www.w3.org/2000/svg"><path d="M9.774 26.263c10.614 0 16.418-8.793 16.418-16.418 0-.25-.005-.499-.017-.746a11.744 11.744 0 002.879-2.988c-1.034.46-2.147.769-3.314.909a5.792 5.792 0 002.537-3.192 11.572 11.572 0 01-3.664 1.4 5.771 5.771 0 00-9.833 5.262A16.383 16.383 0 012.886 4.463a5.757 5.757 0 00-.781 2.9 5.766 5.766 0 002.567 4.803 5.727 5.727 0 01-2.613-.721v.073a5.772 5.772 0 004.629 5.657 5.792 5.792 0 01-2.606.099 5.777 5.777 0 005.39 4.008 11.577 11.577 0 01-7.167 2.47c-.465 0-.925-.027-1.376-.08a16.334 16.334 0 008.845 2.592"/></svg>