<svg width="116" height="97" viewBox="0 0 116 97" fill="none" xmlns="http://www.w3.org/2000/svg">
<g clip-path="url(#clip0)" filter="url(#filter0_d)">
<path d="M97.6758 10.0031C97.6758 5.91156 94.3409 2.56396 90.2648 2.56396H26.0359C21.9598 2.56396 18.6248 5.91156 18.6248 10.0031V62.0768H97.6758V10.0031ZM87.7945 52.158H28.5062V12.4828H87.7945V52.158Z" fill="url(#paint0_linear)" fill-opacity="0.9"/>
<path d="M87.7945 52.9815H88.6179V52.158V12.4828V11.6593H87.7945H28.5062H27.6827V12.4828V52.158V52.9815H28.5062H87.7945ZM90.2648 3.38741C93.8832 3.38741 96.8524 6.3634 96.8524 10.0031V61.2534H19.4483V10.0031C19.4483 6.3634 22.4175 3.38741 26.0359 3.38741H90.2648Z" stroke="url(#paint1_linear)" stroke-opacity="0.4" stroke-width="1.6469"/>
<path d="M48.1191 43.1149C49.0841 44.0835 50.6481 44.0835 51.6131 43.1149L53.3593 41.3621C54.3243 40.3934 54.3243 38.8235 53.3593 37.8548L47.8443 32.3205L53.3578 26.7845C54.3228 25.8159 54.3228 24.2459 53.3578 23.2773L51.6116 21.5244C50.6466 20.5558 49.0826 20.5558 48.1176 21.5244L39.1101 30.5661C38.1451 31.5347 38.1451 33.1047 39.1101 34.0733L48.1191 43.1149ZM62.9427 41.3636L64.689 43.1165C65.6539 44.0851 67.218 44.0851 68.183 43.1165L77.1905 34.0748C78.1554 33.1062 78.1554 31.5362 77.1905 30.5676L68.183 21.526C67.218 20.5574 65.6539 20.5574 64.689 21.526L62.9427 23.2788C61.9778 24.2475 61.9778 25.8174 62.9427 26.7861L68.4562 32.3205L62.9427 37.8564C61.9778 38.825 61.9778 40.395 62.9427 41.3636Z" fill="url(#paint2_linear)" fill-opacity="0.9"/>
<path d="M48.4108 42.8243L48.4108 42.8243L39.4018 33.7827C39.4018 33.7827 39.4018 33.7827 39.4017 33.7827C38.5968 32.9747 38.5969 31.6646 39.4018 30.8566L48.4093 21.815C49.2133 21.0079 50.5158 21.0079 51.3199 21.815L53.0661 23.5679C53.871 24.3758 53.871 25.686 53.0661 26.4939L53.0661 26.494L47.5526 32.0299L47.2631 32.3205L47.5527 32.6111L53.0677 38.1454C53.8726 38.9534 53.8726 40.2635 53.0677 41.0715L51.3214 42.8243C50.5174 43.6314 49.2149 43.6314 48.4108 42.8243ZM68.748 32.611L69.0374 32.3204L68.7479 32.0299L63.2344 26.4955C62.4295 25.6875 62.4295 24.3774 63.2344 23.5694L64.9806 21.8166C65.7847 21.0095 67.0872 21.0095 67.8913 21.8166L76.8988 30.8582C77.7037 31.6662 77.7037 32.9763 76.8988 33.7843L67.8913 42.8259C67.0872 43.633 65.7847 43.633 64.9806 42.8259L63.2344 41.073C62.4295 40.2651 62.4295 38.9549 63.2344 38.147L63.2345 38.1469L68.748 32.611Z" stroke="url(#paint3_linear)" stroke-opacity="0.4" stroke-width="0.823448"/>
<path d="M105.087 67.0361H67.6519C67.5377 70.1063 65.3808 71.9955 62.597 71.9955H53.2097C50.324 71.9955 48.1115 69.288 48.1501 67.0361H11.2138C9.85512 67.0361 8.74347 68.152 8.74347 69.5158V71.9955C8.74347 77.4509 13.1901 81.9143 18.6248 81.9143H97.6759C103.111 81.9143 107.557 77.4509 107.557 71.9955V69.5158C107.557 68.152 106.446 67.0361 105.087 67.0361Z" fill="url(#paint4_linear)" fill-opacity="0.9"/>
<path d="M11.2138 67.8596H47.3924C47.582 68.9703 48.1666 70.0632 48.9858 70.927C50.0205 72.0178 51.5009 72.819 53.2097 72.819H62.597C64.1777 72.819 65.6227 72.2803 66.6926 71.2643C67.5969 70.4055 68.1974 69.2397 68.4022 67.8596H105.087C105.988 67.8596 106.734 68.6038 106.734 69.5158V71.9955C106.734 76.999 102.653 81.0909 97.6759 81.0909H18.6248C13.6478 81.0909 9.56692 76.999 9.56692 71.9955V69.5158C9.56692 68.6038 10.3128 67.8596 11.2138 67.8596Z" stroke="url(#paint5_linear)" stroke-opacity="0.4" stroke-width="1.6469"/>
</g>
<defs>
<filter id="filter0_d" x="0.508926" y="0.917068" width="115.283" height="95.8194" filterUnits="userSpaceOnUse" color-interpolation-filters="sRGB">
<feFlood flood-opacity="0" result="BackgroundImageFix"/>
<feColorMatrix in="SourceAlpha" type="matrix" values="0 0 0 0 0 0 0 0 0 0 0 0 0 0 0 0 0 0 127 0" result="hardAlpha"/>
<feOffset dy="6.58759"/>
<feGaussianBlur stdDeviation="4.11724"/>
<feColorMatrix type="matrix" values="0 0 0 0 0.334444 0 0 0 0 0.0410466 0 0 0 0 0.0238889 0 0 0 0.25 0"/>
<feBlend mode="normal" in2="BackgroundImageFix" result="effect1_dropShadow"/>
<feBlend mode="normal" in="SourceGraphic" in2="effect1_dropShadow" result="shape"/>
</filter>
<linearGradient id="paint0_linear" x1="78.4148" y1="-30.4594" x2="78.4148" y2="105.192" gradientUnits="userSpaceOnUse">
<stop stop-color="#F53B3B"/>
<stop offset="1" stop-color="#FB6544"/>
</linearGradient>
<linearGradient id="paint1_linear" x1="78.621" y1="-3.1686" x2="78.621" y2="81.9145" gradientUnits="userSpaceOnUse">
<stop stop-color="#E74544"/>
<stop offset="1" stop-color="white" stop-opacity="0.14"/>
</linearGradient>
<linearGradient id="paint2_linear" x1="44.8997" y1="0.0269706" x2="37.0356" y2="72.5012" gradientUnits="userSpaceOnUse">
<stop stop-color="#1256BC"/>
<stop offset="1" stop-color="#44F0FB"/>
</linearGradient>
<linearGradient id="paint3_linear" x1="35.5015" y1="-19.9592" x2="35.5015" y2="52.498" gradientUnits="userSpaceOnUse">
<stop stop-color="#E74544"/>
<stop offset="1" stop-color="white" stop-opacity="0.14"/>
</linearGradient>
<linearGradient id="paint4_linear" x1="8.41269" y1="56.8552" x2="8.41269" y2="107.46" gradientUnits="userSpaceOnUse">
<stop stop-color="#F5AB3B"/>
<stop offset="1" stop-color="#FB6544"/>
</linearGradient>
<linearGradient id="paint5_linear" x1="8.74306" y1="67.0361" x2="8.74306" y2="98.7764" gradientUnits="userSpaceOnUse">
<stop stop-color="#E74544"/>
<stop offset="1" stop-color="white" stop-opacity="0.14"/>
</linearGradient>
<clipPath id="clip0">
<rect width="98.8138" height="79.3505" fill="white" transform="translate(8.74341 2.56396)"/>
</clipPath>
</defs>
</svg>
