<svg width="69" height="68" viewBox="0 0 69 68" fill="none" xmlns="http://www.w3.org/2000/svg">
<g opacity="0.8" clip-path="url(#clip0)">
<path d="M54.3713 34C54.3713 40.12 51.5946 45.7866 46.8063 49.5833C44.8513 51.1133 43.5763 53.125 43.1796 55.2783L43.038 55.25H26.038L25.8396 55.2783C25.443 53.04 24.2813 51.085 22.6096 49.8383C16.433 45.1633 13.543 37.5133 15.1296 29.8066C16.688 22.2983 22.7796 16.1783 30.288 14.62C36.2663 13.345 42.3863 14.8183 47.033 18.5866C51.708 22.3833 54.3713 27.9933 54.3713 34Z" fill="#E38E3F"/>
<path d="M34.5351 14.1696C33.127 14.1696 31.7046 14.3169 30.288 14.6201C22.7796 16.1784 16.688 22.2984 15.1296 29.8067C13.543 37.5134 16.433 45.1634 22.6096 49.8384C24.2813 51.0851 25.443 53.0401 25.8396 55.2784L26.038 55.2501H34.538V14.1696C34.5351 14.1696 34.5351 14.1696 34.5351 14.1696Z" fill="#E0842E"/>
<path d="M43.1797 55.2783C43.0947 55.76 43.038 56.2417 43.038 56.7517V63.0417C43.038 65.7617 40.7997 68 38.0797 68H30.9963C28.6163 68 26.038 66.1867 26.038 62.22V57.205C26.038 56.5533 25.9813 55.9017 25.8397 55.2783L26.038 55.25H43.038L43.1797 55.2783Z" fill="#4F4F7D"/>
<path d="M34.538 55.25H26.038L25.8397 55.2783C25.9813 55.9017 26.038 56.5533 26.038 57.205V62.22C26.038 66.1867 28.6163 68 30.9963 68H34.538V55.25Z" fill="#39395B"/>
<path d="M45.1629 35.4167C43.9899 35.4167 43.0379 34.4647 43.0379 33.2917C43.0379 28.9935 39.5444 25.5 35.2463 25.5C34.0733 25.5 33.1213 24.548 33.1213 23.375C33.1213 22.202 34.0733 21.25 35.2463 21.25C41.8848 21.25 47.2879 26.6532 47.2879 33.2917C47.2879 34.4647 46.3359 35.4167 45.1629 35.4167Z" fill="#FFD54F"/>
<path d="M33.7899 23.3638C33.5718 23.3638 33.3479 23.3666 33.1213 23.3751C33.1213 24.5481 34.0733 25.5001 35.2463 25.5001C39.5444 25.5001 43.0379 28.9936 43.0379 33.2918C43.0379 34.4648 43.9899 35.4168 45.1629 35.4168C46.3359 35.4168 46.7354 23.3638 33.7899 23.3638Z" fill="#DEB945"/>
<path opacity="0.7" d="M57.9324 17.3617C57.499 17.3617 57.0657 17.197 56.7361 16.8652C56.0748 16.2039 56.0748 15.1319 56.7361 14.4706L59.86 11.347C60.5213 10.6858 61.5934 10.6858 62.2548 11.347C62.9161 12.0083 62.9161 13.0803 62.2548 13.7416L59.1309 16.8652C58.7991 17.1947 58.3657 17.3617 57.9324 17.3617Z" fill="#E38E3F"/>
<path opacity="0.7" d="M10.4202 17.3617C10.8535 17.3617 11.2869 17.197 11.6164 16.8652C12.2778 16.2039 12.2778 15.1319 11.6164 14.4706L8.49259 11.347C7.83125 10.6858 6.75912 10.6858 6.09779 11.347C5.43646 12.0083 5.43646 13.0803 6.09779 13.7416L9.22163 16.8652C9.55343 17.1947 9.98679 17.3617 10.4202 17.3617Z" fill="#E38E3F"/>
<path opacity="0.7" d="M66.8116 36.1702H62.3069C61.3539 36.1702 60.5805 35.5221 60.5805 34.7234C60.5805 33.9248 61.3539 33.2766 62.3069 33.2766H66.8116C67.7645 33.2766 68.538 33.9248 68.538 34.7234C68.538 35.5221 67.7645 36.1702 66.8116 36.1702Z" fill="#E38E3F"/>
<path opacity="0.7" d="M35.623 2.81153V7.31623C35.623 8.26919 34.9749 9.0426 34.1762 9.0426C33.3776 9.0426 32.7294 8.26919 32.7294 7.31623V2.81153C32.7294 1.85857 33.3776 1.08516 34.1762 1.08516C34.9749 1.08516 35.623 1.85857 35.623 2.81153Z" fill="#E38E3F"/>
<path opacity="0.7" d="M2.26435 36.1702H6.76905C7.72201 36.1702 8.49542 35.5221 8.49542 34.7234C8.49542 33.9248 7.72201 33.2766 6.76905 33.2766H2.26435C1.31139 33.2766 0.537975 33.9248 0.537975 34.7234C0.537975 35.5221 1.31139 36.1702 2.26435 36.1702Z" fill="#E38E3F"/>
<path opacity="0.7" d="M61.0562 55.7022C60.6229 55.7022 60.1895 55.5374 59.86 55.2057L56.7361 52.0821C56.0748 51.4208 56.0748 50.3488 56.7361 49.6875C57.3974 49.0262 58.4696 49.0262 59.1309 49.6875L62.2548 52.8111C62.9161 53.4723 62.9161 54.5444 62.2548 55.2057C61.923 55.5374 61.4896 55.7022 61.0562 55.7022Z" fill="#E38E3F"/>
<path opacity="0.7" d="M7.29632 55.7022C7.72968 55.7022 8.16305 55.5374 8.49259 55.2057L11.6164 52.0821C12.2778 51.4208 12.2778 50.3488 11.6164 49.6875C10.9551 49.0262 9.88297 49.0262 9.22163 49.6875L6.09779 52.8111C5.43646 53.4723 5.43646 54.5444 6.09779 55.2057C6.42958 55.5374 6.86295 55.7022 7.29632 55.7022Z" fill="#E38E3F"/>
</g>
<defs>
<clipPath id="clip0">
<rect width="68" height="68" fill="white" transform="translate(0.537964)"/>
</clipPath>
</defs>
</svg>
