<svg width="100" height="96" viewBox="0 0 100 96" fill="none" xmlns="http://www.w3.org/2000/svg">
<g clip-path="url(#clip0)">
<path d="M55.3272 54.4133L64.5841 19.8662C64.9567 18.4758 66.4844 17.6602 67.808 18.224C84.501 25.3246 93.7014 44.0355 88.2168 62.0355C82.5831 80.5213 62.4209 91.5159 43.819 86.2803C36.5058 84.2225 30.3592 80.0413 25.8441 74.5934C24.9124 73.4699 25.2903 71.7564 26.5549 71.0263L55.3272 54.4133Z" fill="url(#paint0_linear)" fill-opacity="0.9"/>
<path d="M56.1226 54.6265L56.0343 54.9559L55.739 55.1265L26.9666 71.7394L26.5765 71.0638L26.9666 71.7394C26.1052 72.2368 25.8996 73.3704 26.4779 74.0677L26.4781 74.0679C30.8905 79.3919 36.8956 83.4767 44.042 85.4877C62.2138 90.6022 81.9263 79.8519 87.4291 61.7954C92.7885 44.2064 83.7994 25.921 67.4856 18.9817L67.4853 18.9816C66.6593 18.6298 65.633 19.1331 65.3795 20.0793L56.1226 54.6265Z" stroke="url(#paint1_linear)" stroke-opacity="0.4" stroke-width="1.6469"/>
<path d="M10.7551 42.7971L45.3022 52.054L16.1297 68.8967C15.0147 69.5405 13.5484 69.224 12.8725 68.1301C8.6605 61.3121 6.70227 53.1179 7.72056 44.7693C7.89451 43.3398 9.36469 42.4245 10.7551 42.7971Z" fill="url(#paint2_linear)" fill-opacity="0.9"/>
<path d="M8.53797 44.8688L8.53795 44.869C7.54309 53.0255 9.45585 61.0328 13.573 67.6973C13.9978 68.3848 14.9598 68.6213 15.718 68.1836L43.1689 52.3348L10.542 43.5925C9.59612 43.339 8.64666 43.9757 8.53797 44.8688Z" stroke="url(#paint3_linear)" stroke-opacity="0.4" stroke-width="1.6469"/>
<path d="M15.9309 33.7456C21.7908 16.6748 39.4128 6.50076 57.1265 9.96133C58.4789 10.2254 59.297 11.6446 58.9405 12.9753L50.2114 45.5526L17.6326 36.8231C16.3019 36.4666 15.4834 35.0488 15.9309 33.7456Z" fill="url(#paint4_linear)" fill-opacity="0.9"/>
<path d="M16.7097 34.013L16.7097 34.0131C16.4285 34.8321 16.9416 35.7855 17.8457 36.0277L49.6291 44.5441L58.1451 12.7622C58.3875 11.8573 57.818 10.9353 56.9687 10.7695L56.9686 10.7695C39.6584 7.38775 22.4362 17.331 16.7097 34.013Z" stroke="url(#paint5_linear)" stroke-opacity="0.4" stroke-width="1.6469"/>
<path d="M33.3341 34.5682L37.6362 32.1674L37.1062 31.2175L34.3729 32.7428L34.349 32.6999L34.8168 30.9962C35.3831 29.1452 35.4021 28.3871 35.0072 27.6793C34.4207 26.6283 33.1365 26.3362 31.8741 27.0407C30.63 27.7349 30.1784 28.9996 30.8436 30.1916L31.9253 29.588C31.5679 28.9475 31.7484 28.3204 32.3735 27.9716C32.971 27.6382 33.6188 27.7549 33.9488 28.3462C34.2412 28.8702 34.1311 29.4219 33.8627 30.3955L32.8758 33.747L33.3341 34.5682ZM40.923 30.4459C42.2498 29.7055 42.6725 28.2882 41.9765 27.0411C41.3028 25.8338 39.9776 25.432 38.8377 26.0681C38.3291 26.352 37.9915 26.8056 37.9125 27.2113L37.8757 27.2318L37.128 25.4671L39.8276 23.9606L39.2975 23.0107L35.6572 25.0421L37.135 28.4609L38.2556 28.0566C38.3371 27.7057 38.6482 27.3272 39.0268 27.1199C39.718 26.7382 40.4982 26.9699 40.8919 27.6825C41.2865 28.3825 41.0811 29.1521 40.41 29.5266C39.8431 29.8429 39.1865 29.7392 38.8594 29.2466L37.7563 29.8622C38.3683 30.8869 39.6973 31.1298 40.923 30.4459ZM46.8525 25.4814C47.2625 26.209 48.0723 26.5728 48.9334 26.0923C49.7913 25.6136 49.9161 24.7282 49.5061 24.0006L49.3214 23.6697C48.9141 22.9326 48.1108 22.5732 47.2406 23.0588C46.3918 23.5324 46.2639 24.4195 46.6678 25.1505L46.8525 25.4814ZM41.6586 23.6702C42.0687 24.3978 42.8751 24.7555 43.7392 24.2733C44.5941 23.7962 44.7257 22.9231 44.3122 22.1894L44.1276 21.8585C43.7203 21.1214 42.9169 20.7619 42.0498 21.2459C41.204 21.7178 41.0666 22.6022 41.474 23.3393L41.6586 23.6702ZM44.595 28.2842L45.3642 27.855L46.1766 19.172L45.4075 19.6012L44.595 28.2842ZM47.4676 24.7042C47.2894 24.3777 47.2443 23.9729 47.6304 23.7574C48.0349 23.5317 48.3374 23.7929 48.5155 24.1194L48.7002 24.4503C48.8845 24.7734 48.9323 25.1687 48.5401 25.3876C48.1479 25.6065 47.8349 25.3552 47.6523 25.0351L47.4676 24.7042ZM42.2799 22.8896C42.1034 22.5661 42.0505 22.1617 42.4396 21.9445C42.8441 21.7188 43.1435 21.9817 43.3217 22.3082L43.5064 22.6391C43.6907 22.9622 43.7415 23.3558 43.3493 23.5746C42.9571 23.7935 42.6488 23.5436 42.4645 23.2205L42.2799 22.8896Z" fill="white" fill-opacity="0.8"/>
</g>
<defs>
<linearGradient id="paint0_linear" x1="66.0974" y1="-13.2668" x2="34.2531" y2="105.578" gradientUnits="userSpaceOnUse">
<stop stop-color="#F53B3B"/>
<stop offset="1" stop-color="#FB6544"/>
</linearGradient>
<linearGradient id="paint1_linear" x1="59.574" y1="10.6115" x2="39.6007" y2="85.153" gradientUnits="userSpaceOnUse">
<stop stop-color="#E74544"/>
<stop offset="1" stop-color="white" stop-opacity="0.14"/>
</linearGradient>
<linearGradient id="paint2_linear" x1="44.9464" y1="29.0559" x2="33.9099" y2="105.812" gradientUnits="userSpaceOnUse">
<stop stop-color="#1256BC"/>
<stop offset="1" stop-color="#44F0FB"/>
</linearGradient>
<linearGradient id="paint3_linear" x1="59.2309" y1="10.8461" x2="39.2575" y2="85.3876" gradientUnits="userSpaceOnUse">
<stop stop-color="#E74544"/>
<stop offset="1" stop-color="white" stop-opacity="0.14"/>
</linearGradient>
<linearGradient id="paint4_linear" x1="66.0974" y1="-13.2668" x2="34.2531" y2="105.578" gradientUnits="userSpaceOnUse">
<stop stop-color="#F5AB3B"/>
<stop offset="1" stop-color="#FB6544"/>
</linearGradient>
<linearGradient id="paint5_linear" x1="59.574" y1="10.6114" x2="39.6007" y2="85.1529" gradientUnits="userSpaceOnUse">
<stop stop-color="#E74544"/>
<stop offset="1" stop-color="white" stop-opacity="0.14"/>
</linearGradient>
<clipPath id="clip0">
<rect width="81.9951" height="77.1719" fill="white" transform="matrix(-0.965926 -0.258819 -0.258819 0.965926 99.1747 21.2219)"/>
</clipPath>
</defs>
</svg>
