<svg width="66" height="66" fill="none" xmlns="http://www.w3.org/2000/svg"><circle cx="32.708" cy="32.708" r="23.5" transform="rotate(119.509 32.708 32.708)" stroke="url(#paint0_linear)"/><path d="M27.012 38H42V24c0-1.103-.897-2-2-2H27c-1.206 0-3 .799-3 3v14c0 2.201 1.794 3 3 3h15v-2H27.012C26.55 39.988 26 39.806 26 39c0-.101.009-.191.024-.273.112-.576.584-.717.988-.727zm2.636-10.358a2.224 2.224 0 013.125 0l.224.219.223-.219a2.225 2.225 0 013.126 0 2.128 2.128 0 010 3.069L32.998 34l-3.349-3.289a2.128 2.128 0 01-.001-3.069z" fill="url(#paint1_linear)"/><circle cx="50.5" cy="52.5" r=".5" fill="#BBAC64"/><circle cx="13" cy="13" r="1" fill="#BBAC64"/><circle cx="9.5" cy="18.5" r=".5" fill="#BBAC64"/><circle cx="12.5" cy="24.5" r=".5" fill="#BBAC64"/><circle cx="17.5" cy="17.5" r=".5" fill="#BBAC64"/><circle cx="48" cy="46" r="1" fill="#BBAC64"/><circle cx="43.5" cy="50.5" r=".5" fill="#BBAC64"/><defs><linearGradient id="paint0_linear" x1="32.708" y1="8.708" x2="32.708" y2="56.708" gradientUnits="userSpaceOnUse"><stop stop-color="#B8A74D"/><stop offset="1" stop-color="#2C2E59"/></linearGradient><linearGradient id="paint1_linear" x1="33" y1="22" x2="33" y2="42" gradientUnits="userSpaceOnUse"><stop stop-color="#B0A04E"/><stop offset="1" stop-color="#CCC18A"/></linearGradient></defs></svg>