<svg width="24" height="24" fill="none" xmlns="http://www.w3.org/2000/svg"><g clip-path="url(#clip0)"><path d="M19.734 17.28H4.923a.679.679 0 01-.565-.308c-1.954-2.947-2.104-8.616-2.116-9.457v-.1c0-.388.305-.702.682-.703h.001c.377 0 .683.313.684.7l.002.12c.06 2.002 1.663 3.61 3.623 3.61 1.999 0 3.625-1.671 3.625-3.727 0-.388.306-.703.684-.703h1.571c.378 0 .684.315.684.703 0 2.056 1.626 3.728 3.625 3.728 1.962 0 3.566-1.612 3.623-3.616l.002-.114a.694.694 0 01.684-.701c.378 0 .684.315.684.703l-.001.1c-.012.841-.162 6.51-2.116 9.457a.679.679 0 01-.565.307z" fill="#F79C6E"/><path d="M21.733 6.712h-.002a.694.694 0 00-.684.7l-.001.115c-.058 2.004-1.66 3.616-3.623 3.616-1.999 0-3.625-1.672-3.625-3.728a.694.694 0 00-.684-.703h-.786v10.567h7.406a.679.679 0 00.565-.307c1.954-2.947 2.104-8.616 2.116-9.457v-.1a.694.694 0 00-.682-.703z" fill="#F6844B"/><path d="M12.328 4.31a2.405 2.405 0 00-2.401 2.402 2.404 2.404 0 002.401 2.402 2.404 2.404 0 002.402-2.402 2.404 2.404 0 00-2.402-2.402z" fill="#F6844B"/><path d="M12.329 4.31v4.804a2.405 2.405 0 002.401-2.402 2.405 2.405 0 00-2.402-2.402z" fill="#F47434"/><path d="M2.962 5.751C1.77 5.751.8 6.83.8 8.153s.97 2.402 2.162 2.402 2.161-1.078 2.161-2.402-.97-2.402-2.161-2.402z" fill="#F6844B"/><path d="M21.695 5.751c-1.192 0-2.161 1.078-2.161 2.402s.97 2.402 2.161 2.402c1.192 0 2.162-1.078 2.162-2.402s-.97-2.402-2.162-2.402z" fill="#F47434"/><path d="M19.804 19.681H4.853c-.381 0-.69-.324-.69-.724V16.8h16.331v2.158c0 .4-.309.724-.69.724z" fill="#F6844B"/><path d="M12.329 19.681h7.475c.381 0 .69-.324.69-.724V16.8H12.33v2.882z" fill="#F47434"/></g><defs><clipPath id="clip0"><path fill="#fff" transform="translate(.8 .467)" d="M0 0h23.056v23.056H0z"/></clipPath></defs></svg>