<svg width="66" height="66" fill="none" xmlns="http://www.w3.org/2000/svg"><circle cx="32.708" cy="32.708" r="23.5" transform="rotate(119.509 32.708 32.708)" stroke="url(#paint0_linear)"/><path d="M36.6 27.2a3.6 3.6 0 11-7.2 0 3.6 3.6 0 017.2 0z" fill="url(#paint1_linear)"/><path d="M42.6 29.6a2.4 2.4 0 11-4.8 0 2.4 2.4 0 014.8 0z" fill="url(#paint2_linear)"/><path d="M37.8 38a4.8 4.8 0 00-9.6 0v3.6h9.6V38z" fill="url(#paint3_linear)"/><path d="M28.2 29.6a2.4 2.4 0 11-4.8 0 2.4 2.4 0 014.8 0z" fill="url(#paint4_linear)"/><path d="M40.2 41.6V38a7.168 7.168 0 00-.9-3.487A3.606 3.606 0 0143.8 38v3.6h-3.6z" fill="url(#paint5_linear)"/><path d="M26.7 34.513A7.167 7.167 0 0025.8 38v3.6h-3.6V38a3.6 3.6 0 014.5-3.487z" fill="url(#paint6_linear)"/><circle cx="7" cy="42" r="1" fill="#F0868A"/><circle cx="12.5" cy="48.5" r=".5" fill="#F0868A"/><circle cx="20" cy="47" r="1" fill="#F0868A"/><circle cx="16.5" cy="16.5" r=".5" fill="#F0868A"/><circle cx="18.5" cy="10.5" r=".5" fill="#F0868A"/><circle cx="24" cy="7" r="1" fill="#F0868A"/><defs><linearGradient id="paint0_linear" x1="32.708" y1="8.708" x2="32.708" y2="56.708" gradientUnits="userSpaceOnUse"><stop stop-color="#FF7D7D"/><stop offset="1" stop-color="#2C2E59"/></linearGradient><linearGradient id="paint1_linear" x1="33" y1="23.6" x2="33" y2="30.8" gradientUnits="userSpaceOnUse"><stop stop-color="#EF777B"/><stop offset="1" stop-color="#F08F92"/></linearGradient><linearGradient id="paint2_linear" x1="40.2" y1="27.2" x2="40.2" y2="32" gradientUnits="userSpaceOnUse"><stop stop-color="#EF777B"/><stop offset="1" stop-color="#F08F92"/></linearGradient><linearGradient id="paint3_linear" x1="33" y1="33.2" x2="33" y2="41.6" gradientUnits="userSpaceOnUse"><stop stop-color="#EF777B"/><stop offset="1" stop-color="#F08F92"/></linearGradient><linearGradient id="paint4_linear" x1="25.8" y1="27.2" x2="25.8" y2="32" gradientUnits="userSpaceOnUse"><stop stop-color="#EF777B"/><stop offset="1" stop-color="#F08F92"/></linearGradient><linearGradient id="paint5_linear" x1="41.55" y1="34.4" x2="41.55" y2="41.6" gradientUnits="userSpaceOnUse"><stop stop-color="#EF777B"/><stop offset="1" stop-color="#F08F92"/></linearGradient><linearGradient id="paint6_linear" x1="24.45" y1="34.398" x2="24.45" y2="41.6" gradientUnits="userSpaceOnUse"><stop stop-color="#EF777B"/><stop offset="1" stop-color="#F08F92"/></linearGradient></defs></svg>