<svg width="23" height="23" xmlns="http://www.w3.org/2000/svg"><path d="M22.511 10.52L12.278 1.063a.793.793 0 00-1.071 0L.974 10.519a.723.723 0 00-.236.531c0 .408.346.738.772.738h1.36v10.337c0 .408.345.739.771.739h5.401c.426 0 .772-.33.772-.739v-5.907h3.857v5.907c0 .408.346.739.772.739h5.4c.427 0 .772-.33.772-.739V11.788h1.36c.21 0 .41-.08.555-.225a.716.716 0 00-.019-1.044zm-1.896.53c-.426 0-.771.33-.771.738v10.337h-5.401v-5.907c0-.407-.346-.738-.772-.738H9.814c-.427 0-.772.33-.772.738v5.907h-5.4V11.788c0-.408-.346-.738-.772-.738H1.51l10.232-9.455L21.98 11.05h-1.364z"/></svg>