<svg width="30" height="30" xmlns="http://www.w3.org/2000/svg"><path d="M20.625 0H9.375A9.376 9.376 0 000 9.375v11.25A9.376 9.376 0 009.375 30h11.25A9.376 9.376 0 0030 20.625V9.375A9.376 9.376 0 0020.625 0zm6.563 20.625a6.57 6.57 0 01-6.563 6.563H9.375a6.57 6.57 0 01-6.563-6.563V9.375a6.57 6.57 0 016.563-6.563h11.25a6.57 6.57 0 016.563 6.563v11.25z"/><path d="M15 7.5a7.5 7.5 0 10.001 15 7.5 7.5 0 000-15zm0 12.187A4.694 4.694 0 0110.313 15 4.693 4.693 0 0115 10.312 4.693 4.693 0 0119.688 15 4.694 4.694 0 0115 19.687zm8.063-11.75a1 1 0 100-1.999 1 1 0 000 2z"/></svg>