<svg width="125" height="86" xmlns="http://www.w3.org/2000/svg"><path d="M5.218 85.241c-1.013 0-1.996-.134-2.948-.402-.94-.28-1.696-.64-2.27-1.08l1.007-2.23c.55.402 1.202.725 1.959.969a7.36 7.36 0 002.27.366c.842 0 1.464-.122 1.867-.366.403-.256.604-.592.604-1.006a.917.917 0 00-.366-.75c-.232-.207-.537-.372-.915-.494a17.28 17.28 0 00-1.501-.402c-.977-.231-1.776-.463-2.399-.695a3.964 3.964 0 01-1.61-1.116c-.44-.512-.66-1.195-.66-2.048 0-.744.202-1.414.604-2.012.403-.61 1.007-1.09 1.813-1.445.818-.353 1.812-.53 2.984-.53.817 0 1.617.098 2.398.293.781.195 1.465.475 2.05.84l-.915 2.25c-1.184-.67-2.368-1.005-3.551-1.005-.83 0-1.447.134-1.85.402-.39.268-.585.622-.585 1.06 0 .44.226.769.677.988.464.208 1.166.415 2.105.622.977.232 1.776.464 2.399.695a3.9 3.9 0 011.592 1.098c.452.5.678 1.176.678 2.03 0 .731-.208 1.402-.623 2.011-.402.598-1.013 1.073-1.83 1.427-.818.354-1.813.53-2.984.53zm16.818-2.963h-5.95l-1.135 2.744h-3.039l5.712-12.803h2.93l5.73 12.803H23.17l-1.135-2.744zm-.933-2.25l-2.033-4.9-2.032 4.9h4.065zm10.391-5.43v3.383h5.931v2.377h-5.931v4.664h-2.966V72.219h9.685v2.378h-6.719zm19.565 8.046v2.378h-9.923V72.219h9.684v2.378h-6.736v2.78h5.95v2.304h-5.95v2.963h6.974zM66.087 72.22v12.803H63.12v-5.25h-5.822v5.25h-2.965V72.219h2.965v5.048h5.822V72.22h2.966zM76.24 85.242c-1.33 0-2.532-.286-3.607-.86a6.49 6.49 0 01-2.508-2.359c-.598-1.012-.897-2.146-.897-3.401 0-1.256.3-2.384.897-3.384a6.446 6.446 0 012.508-2.377c1.075-.574 2.277-.86 3.607-.86s2.526.286 3.588.86a6.443 6.443 0 012.508 2.377c.61 1 .915 2.128.915 3.384 0 1.255-.305 2.39-.915 3.401a6.488 6.488 0 01-2.508 2.36c-1.062.573-2.258.86-3.588.86zm0-2.524c.757 0 1.44-.17 2.05-.512a3.742 3.742 0 001.428-1.463c.354-.622.531-1.329.531-2.121 0-.793-.177-1.5-.53-2.122a3.615 3.615 0 00-1.429-1.445 4.013 4.013 0 00-2.05-.53c-.757 0-1.44.177-2.05.53a3.744 3.744 0 00-1.447 1.445c-.341.622-.512 1.329-.512 2.122 0 .792.17 1.5.512 2.121.354.622.837 1.11 1.447 1.463.61.342 1.293.512 2.05.512zm15.85 2.524c-1.831 0-3.26-.506-4.285-1.518-1.013-1.012-1.519-2.457-1.519-4.334v-7.17h2.966v7.06c0 2.292.952 3.438 2.856 3.438.927 0 1.635-.274 2.123-.823.488-.56.733-1.432.733-2.615v-7.06h2.929v7.17c0 1.877-.513 3.322-1.538 4.334-1.013 1.012-2.435 1.518-4.266 1.518zm13.859 0a10.82 10.82 0 01-2.947-.402c-.94-.28-1.696-.64-2.27-1.08l1.007-2.23c.549.402 1.202.725 1.959.969a7.355 7.355 0 002.27.366c.842 0 1.464-.122 1.867-.366.403-.256.604-.592.604-1.006a.918.918 0 00-.366-.75c-.232-.207-.537-.372-.915-.494a17.36 17.36 0 00-1.502-.402c-.976-.231-1.775-.463-2.398-.695a3.97 3.97 0 01-1.611-1.116c-.439-.512-.659-1.195-.659-2.048 0-.744.201-1.414.604-2.012.403-.61 1.007-1.09 1.813-1.445.818-.353 1.812-.53 2.984-.53a9.86 9.86 0 012.398.293c.781.195 1.464.475 2.05.84l-.915 2.25c-1.184-.67-2.368-1.005-3.552-1.005-.829 0-1.446.134-1.849.402-.39.268-.585.622-.585 1.06 0 .44.225.769.677.988.464.208 1.166.415 2.105.622.977.232 1.776.464 2.398.695a3.894 3.894 0 011.593 1.098c.452.5.678 1.176.678 2.03a3.5 3.5 0 01-.623 2.011c-.403.598-1.013 1.073-1.831 1.427-.817.354-1.812.53-2.984.53zm18.302-2.597v2.378h-9.923V72.219h9.685v2.378h-6.737v2.78h5.95v2.304h-5.95v2.963h6.975z"/><path clip-rule="evenodd" d="M18 43.97L62.013 0l.005.005 18.92 18.847V7.372h7v18.454l18.217 18.148-5.696 5.69-38.438-38.292L23.697 49.66 18 43.97zm37.348-8.484h13.547v23.41H55.348v-23.41z"/></svg>