<svg width="30" height="30" xmlns="http://www.w3.org/2000/svg"><path d="M24.374 27.19h-.16C5.794 26.13 3.178 10.585 2.813 5.842A2.813 2.813 0 015.4 2.813h5.166a1.875 1.875 0 011.744 1.182l1.425 3.506a1.875 1.875 0 01-.413 2.025l-1.997 2.016a8.785 8.785 0 007.106 7.125l2.035-2.016a1.875 1.875 0 012.034-.384l3.535 1.415a1.875 1.875 0 011.153 1.744v4.95a2.813 2.813 0 01-2.813 2.813zM5.624 4.69a.938.938 0 00-.937.937v.075c.43 5.55 3.197 18.675 19.63 19.612a.938.938 0 00.995-.88v-5.007l-3.535-1.416-2.69 2.672-.45-.056c-8.157-1.022-9.263-9.178-9.263-9.262l-.056-.45 2.662-2.691-1.406-3.535h-4.95z"/></svg>