<svg width="23" height="23" xmlns="http://www.w3.org/2000/svg"><path d="M22.392.055H1.093A.355.355 0 00.738.41v9.628a1.069 1.069 0 001.064 1.065l.052-.001a1.073 1.073 0 001.014-1.084V3.25a.355.355 0 01.71 0v2.84a1.07 1.07 0 00.692.999A1.073 1.073 0 005.708 6.07V3.25a.355.355 0 01.355-.355h.355a.355.355 0 01.355.355v1.065a.355.355 0 00-.355.355v7.93a1.244 1.244 0 00-.71 1.122v1.242a.355.355 0 00.355.356h2.485v.71a.355.355 0 00.355.354h1.42v4.438a1.244 1.244 0 001.242 1.242h.355a1.244 1.244 0 001.242-1.242v-4.438h1.42a.355.355 0 00.355-.355v-.71h2.485a.355.355 0 00.355-.354V13.72a1.244 1.244 0 00-.71-1.122v-7.93a.355.355 0 00-.355-.355 1.421 1.421 0 011.41-1.42h.01a1.39 1.39 0 01.984.414c.277.275.433.648.436 1.038v2.453a1.062 1.062 0 001.066 1.065h.007a1.077 1.077 0 001.057-1.083V3.427a.533.533 0 01.532-.533h.178a.355.355 0 00.355-.355V.41a.355.355 0 00-.355-.354zm-9.94 20.765a.533.533 0 01-.532.533h-.355a.533.533 0 01-.532-.533v-4.437h1.42v4.438zm1.775-5.147h-4.97v-.354h4.97v.354zm2.84-1.952v.887H6.417v-.887a.533.533 0 01.533-.532h9.585a.533.533 0 01.532.532zM15.292 8.22a.355.355 0 00-.355.355v3.905h-.71V6.444a.355.355 0 10-.71 0v6.035h-.71V7.864a.355.355 0 10-.71 0v4.615h-.71V6.444a.355.355 0 00-.71 0v6.035h-.71V7.154a.355.355 0 10-.71 0v5.325h-.71V9.284a.355.355 0 00-.71 0v3.195h-.71V5.024h1.274l.605.606a.356.356 0 00.503 0l.605-.606h2.546l.606.606a.356.356 0 00.502 0l.555-.555.857.286c.09.03.187.023.271-.019l.635-.318h.271v7.455h-.71V8.574a.355.355 0 00-.355-.355zm6.745-6.022a1.244 1.244 0 00-1.065 1.23V6.78a.365.365 0 01-.352.373h-.002a.354.354 0 01-.356-.355V4.346a2.189 2.189 0 00-1.326-2 2.096 2.096 0 00-.805-.161h-.013a2.13 2.13 0 00-2.116 2.13.359.359 0 00-.159.037l-.578.289-.926-.308a.356.356 0 00-.363.085l-.459.46-.458-.46a.356.356 0 00-.252-.104h-2.84a.355.355 0 00-.25.104l-.46.46-.458-.46a.355.355 0 00-.251-.104H7.483V3.25a1.066 1.066 0 00-1.065-1.064h-.355A1.066 1.066 0 004.998 3.25v2.82a.37.37 0 01-.338.375.355.355 0 01-.372-.355V3.25a1.065 1.065 0 00-2.13 0v6.77a.37.37 0 01-.337.374.355.355 0 01-.373-.355V.765h20.589v1.432z"/><path d="M14.993 3.96a1.066 1.066 0 001.065-1.064v-1.42a.355.355 0 10-.71 0v1.42a.355.355 0 01-.71 0v-.71a.355.355 0 10-.71 0v.71a1.067 1.067 0 001.065 1.065z"/></svg>