<?xml version="1.0" encoding="utf-8"?><svg viewBox="0 0 108 108" xmlns="http://www.w3.org/2000/svg" xmlns:xlink="http://www.w3.org/1999/xlink"><style>:root>svg{display:none}:root>svg:target{display:block}</style><svg fill="none" viewBox="0 0 66 66" id="access" xmlns="http://www.w3.org/2000/svg"><circle cx="32.708" cy="32.708" r="23.5" transform="rotate(119.509 32.708 32.708)" stroke="url(#apaint0_linear)"/><path d="M27.012 38H42V24c0-1.103-.897-2-2-2H27c-1.206 0-3 .799-3 3v14c0 2.201 1.794 3 3 3h15v-2H27.012C26.55 39.988 26 39.806 26 39c0-.101.009-.191.024-.273.112-.576.584-.717.988-.727zm2.636-10.358a2.224 2.224 0 013.125 0l.224.219.223-.219a2.225 2.225 0 013.126 0 2.128 2.128 0 010 3.069L32.998 34l-3.349-3.289a2.128 2.128 0 01-.001-3.069z" fill="url(#apaint1_linear)"/><circle cx="50.5" cy="52.5" r=".5" fill="#BBAC64"/><circle cx="13" cy="13" r="1" fill="#BBAC64"/><circle cx="9.5" cy="18.5" r=".5" fill="#BBAC64"/><circle cx="12.5" cy="24.5" r=".5" fill="#BBAC64"/><circle cx="17.5" cy="17.5" r=".5" fill="#BBAC64"/><circle cx="48" cy="46" r="1" fill="#BBAC64"/><circle cx="43.5" cy="50.5" r=".5" fill="#BBAC64"/><defs><linearGradient id="apaint0_linear" x1="32.708" y1="8.708" x2="32.708" y2="56.708" gradientUnits="userSpaceOnUse"><stop stop-color="#B8A74D"/><stop offset="1" stop-color="#2C2E59"/></linearGradient><linearGradient id="apaint1_linear" x1="33" y1="22" x2="33" y2="42" gradientUnits="userSpaceOnUse"><stop stop-color="#B0A04E"/><stop offset="1" stop-color="#CCC18A"/></linearGradient></defs></svg><svg fill="none" viewBox="0 0 108 108" id="boock" xmlns="http://www.w3.org/2000/svg"><rect x="20.833" y="1.351" width="88" height="88" rx="19" transform="rotate(12.79 20.833 1.35)" fill="url(#bpaint0_linear)" fill-opacity=".9" stroke="url(#bpaint1_linear)" stroke-width="2"/><g clip-path="url(#bclip0)"><mask id="ba" fill="#fff"><path d="M71.11 39.581L47.486 28.764s-3.44-3.058-6.582.684c-1.297 1.544-1.579 3.27-1.579 3.27l-5.915 36.71c-.472 3.4 3.666 4.498 3.666 4.498l31.573 7.904-.124-1.555c.66-1.187 2.135-3.175 4.705-3.419.057-.005.099-.044.149-.07l.959.315-3.228-37.518zm-22.124 5.79l1.11-8.343 17.694 7.714.336 7.563-19.14-6.935zM69.524 77.6a8.02 8.02 0 00-.866.898l-20.572-5.373 20.022 6.134c-.081.127-.165.252-.234.37L41.37 72.9l26.083 7.535-.026.054-29.478-7.603c-.016-.002-1.404-.298-2.366-1.106-.95-.798-1.133-1.784-.56-3.014 1.472-3.162 6.643-1.31 6.721-1.282l29.737 8.883a6.143 6.143 0 00-1.087.573l-19.32-5.112 18.45 5.773z"/></mask><path d="M71.11 39.581L47.486 28.764s-3.44-3.058-6.582.684c-1.297 1.544-1.579 3.27-1.579 3.27l-5.915 36.71c-.472 3.4 3.666 4.498 3.666 4.498l31.573 7.904-.124-1.555c.66-1.187 2.135-3.175 4.705-3.419.057-.005.099-.044.149-.07l.959.315-3.228-37.518zm-22.124 5.79l1.11-8.343 17.694 7.714.336 7.563-19.14-6.935zM69.524 77.6a8.02 8.02 0 00-.866.898l-20.572-5.373 20.022 6.134c-.081.127-.165.252-.234.37L41.37 72.9l26.083 7.535-.026.054-29.478-7.603c-.016-.002-1.404-.298-2.366-1.106-.95-.798-1.133-1.784-.56-3.014 1.472-3.162 6.643-1.31 6.721-1.282l29.737 8.883a6.143 6.143 0 00-1.087.573l-19.32-5.112 18.45 5.773z" fill="#9DA2C8"/><path d="M71.11 39.581l.996-.085-.05-.581-.53-.243-.416.91zM47.486 28.764l-.664.748.111.1.137.062.416-.91zm-8.16 3.954l-.988-.16v.001l.987.16zm-5.916 36.71l-.987-.158-.002.01-.001.011.99.138zm3.666 4.498l-.257.967.007.002.007.001.243-.97zm31.573 7.904l-.243.97 1.35.338-.11-1.387-.997.08zm-.124-1.555l-.874-.486-.147.264.024.302.997-.08zm4.705-3.419l.094.996h.004l-.098-.996zm.149-.07l.311-.95-.397-.13-.373.192.459.889zm.959.315l-.312.95 1.438.472-.13-1.507-.996.085zM50.097 37.028l.4-.917-1.216-.53-.176 1.315.992.132zm17.693 7.714l1-.045-.028-.623-.572-.249-.4.917zm.336 7.563l-.34.94 1.406.51-.067-1.495-.999.045zm.532 26.194l-.252.968.623.163.406-.5-.777-.63zm-20.572-5.373l.253-.967-.546 1.923.293-.956zm20.022 6.134l.84.543.718-1.111-1.265-.388-.293.956zm-.234.37l-.246.97.731.186.38-.652-.865-.503zM41.37 72.9l.246-.969-.523 1.93.277-.96zm26.083 7.535l.902.431.509-1.064-1.134-.328-.278.96zm-.026.054l-.25.968.797.206.355-.743-.902-.431zm-29.478-7.603l.25-.969-.061-.015-.062-.008-.127.992zm-2.926-4.12l.907.422-.907-.422zm6.721-1.282l-.344.938.028.011.03.009.286-.958zm29.737 8.883l.365.931 2.703-1.058-2.782-.83-.286.957zm-1.087.573l-.255.966.425.113.371-.238-.54-.841zm-19.32-5.112l.256-.967-.554 1.921.298-.954zm20.452-33.156L47.902 27.854l-.832 1.819L70.693 40.49l.833-1.819zm-24.04-9.909l.664-.748h-.001l-.002-.002a.435.435 0 01-.005-.005l-.014-.012a3.962 3.962 0 00-.19-.152 6.297 6.297 0 00-.515-.352 6.288 6.288 0 00-1.819-.763 4.95 4.95 0 00-2.645.079c-.971.304-1.93.936-2.82 1.996l1.53 1.286c.682-.81 1.331-1.2 1.888-1.374a2.951 2.951 0 011.586-.04c.493.116.922.33 1.233.52a4.278 4.278 0 01.447.316c-.001-.001-.001-.001.663-.749zm-7.348.04a8.573 8.573 0 00-1.793 3.715l-.004.024-.002.008v.006l.986.161.987.162v-.002a2.306 2.306 0 01.047-.21 6.572 6.572 0 011.31-2.577l-1.53-1.286zm-1.8 3.755l-5.915 36.71 1.975.319 5.914-36.71-1.974-.319zM32.42 69.29c-.307 2.209.923 3.656 2.063 4.473a7.824 7.824 0 002.264 1.108l.048.014.015.004.005.002a.029.029 0 01.003 0l.258-.966a139.732 139.732 0 01.258-.966h-.001l-.022-.006a5.833 5.833 0 01-.495-.177 5.834 5.834 0 01-1.167-.638c-.81-.581-1.413-1.383-1.248-2.573l-1.981-.275zm4.413 5.605L68.406 82.8l.486-1.94-31.574-7.904-.485 1.94zm32.813 6.855l-.124-1.555-1.994.159.124 1.555 1.994-.16zm-.247-.99c.617-1.108 1.864-2.714 3.925-2.91l-.189-1.99c-3.079.292-4.779 2.661-5.484 3.928l1.748.972zm3.929-2.91a1.192 1.192 0 00.517-.179l.014-.008.008-.005-.03.017-.917-1.778c-.048.025-.088.05-.102.058a.81.81 0 01.314-.095l.196 1.99zm-.261-.114l.959.314.623-1.9-.959-.314-.623 1.9zm2.267-.721l-3.228-37.52-1.992.172 3.227 37.519 1.993-.171zM49.977 45.502l1.11-8.342-1.982-.264-1.11 8.342 1.982.264zm-.28-7.558l17.694 7.714.8-1.833-17.695-7.714-.799 1.833zm17.094 6.842l.336 7.563 1.998-.088-.336-7.564-1.998.09zm1.676 6.579l-19.14-6.935-.682 1.88 19.14 6.935.682-1.88zm.39 25.492a9.01 9.01 0 00-.975 1.012l1.553 1.26c.209-.257.464-.52.757-.784l-1.336-1.488zm.054.675l-20.572-5.373-.506 1.935 20.573 5.373.505-1.935zm-21.118-3.45l20.022 6.135.586-1.913L48.38 72.17l-.586 1.912zm19.475 4.636c-.07.109-.174.265-.258.41l1.729 1.006c.053-.092.117-.188.21-.33l-1.68-1.086zm.852-.056l-26.504-6.73-.492 1.938 26.504 6.73.492-1.938zm-27.027-4.8l26.082 7.534.555-1.922-26.082-7.534-.555 1.922zm25.457 6.141l-.025.055 1.804.862.026-.054-1.805-.863zm1.126-.482l-29.478-7.604-.5 1.937 29.479 7.603.5-1.936zm-29.6-7.627c.064.008.106.02.038.004a6.052 6.052 0 01-.644-.2c-.417-.156-.886-.383-1.244-.684l-1.286 1.532c.604.507 1.31.831 1.83 1.026a8.105 8.105 0 00.88.271c.014.004.103.026.172.035l.254-1.984zm-1.85-.88c-.34-.285-.47-.538-.511-.762-.044-.235-.014-.573.215-1.064l-1.813-.844c-.345.74-.51 1.509-.369 2.273.144.777.58 1.415 1.192 1.929l1.286-1.532zm-.296-1.826c.463-.996 1.54-1.327 2.928-1.26a9.43 9.43 0 011.77.27c.478.118.78.228.772.224l.689-1.877a11.845 11.845 0 00-3.135-.615c-1.584-.076-3.83.248-4.837 2.414l1.813.844zm5.528-.746l29.737 8.884.572-1.917-29.737-8.884-.572 1.917zm29.659 6.994a7.14 7.14 0 00-1.263.662l1.081 1.683c.305-.196.597-.36.91-.483l-.728-1.862zm-.467.537L51.33 70.86l-.511 1.933 19.32 5.112.511-1.933zm-19.874-3.191l18.45 5.773.597-1.909-18.45-5.773-.597 1.909z" fill="#6668AA" mask="url(#ba)"/></g><defs><linearGradient id="bpaint0_linear" x1="64.947" y1="-28.714" x2="64.947" y2="114.777" gradientUnits="userSpaceOnUse"><stop stop-color="#4C5E9D"/><stop offset="1" stop-color="#171836"/></linearGradient><linearGradient id="bpaint1_linear" x1="65.079" y1=".154" x2="65.079" y2="90.154" gradientUnits="userSpaceOnUse"><stop stop-color="#3F458D" stop-opacity=".63"/><stop offset="1" stop-color="#3F458D" stop-opacity=".14"/></linearGradient><clipPath id="bclip0"><path fill="#fff" transform="rotate(40.028 4.705 76.944)" d="M0 0h60v60H0z"/></clipPath></defs></svg><svg fill="none" viewBox="0 0 66 66" id="friends" xmlns="http://www.w3.org/2000/svg"><circle cx="32.708" cy="32.708" r="23.5" transform="rotate(119.509 32.708 32.708)" stroke="url(#cpaint0_linear)"/><path d="M36.6 27.2a3.6 3.6 0 11-7.2 0 3.6 3.6 0 017.2 0z" fill="url(#cpaint1_linear)"/><path d="M42.6 29.6a2.4 2.4 0 11-4.8 0 2.4 2.4 0 014.8 0z" fill="url(#cpaint2_linear)"/><path d="M37.8 38a4.8 4.8 0 00-9.6 0v3.6h9.6V38z" fill="url(#cpaint3_linear)"/><path d="M28.2 29.6a2.4 2.4 0 11-4.8 0 2.4 2.4 0 014.8 0z" fill="url(#cpaint4_linear)"/><path d="M40.2 41.6V38a7.168 7.168 0 00-.9-3.487A3.606 3.606 0 0143.8 38v3.6h-3.6z" fill="url(#cpaint5_linear)"/><path d="M26.7 34.513A7.167 7.167 0 0025.8 38v3.6h-3.6V38a3.6 3.6 0 014.5-3.487z" fill="url(#cpaint6_linear)"/><circle cx="7" cy="42" r="1" fill="#F0868A"/><circle cx="12.5" cy="48.5" r=".5" fill="#F0868A"/><circle cx="20" cy="47" r="1" fill="#F0868A"/><circle cx="16.5" cy="16.5" r=".5" fill="#F0868A"/><circle cx="18.5" cy="10.5" r=".5" fill="#F0868A"/><circle cx="24" cy="7" r="1" fill="#F0868A"/><defs><linearGradient id="cpaint0_linear" x1="32.708" y1="8.708" x2="32.708" y2="56.708" gradientUnits="userSpaceOnUse"><stop stop-color="#FF7D7D"/><stop offset="1" stop-color="#2C2E59"/></linearGradient><linearGradient id="cpaint1_linear" x1="33" y1="23.6" x2="33" y2="30.8" gradientUnits="userSpaceOnUse"><stop stop-color="#EF777B"/><stop offset="1" stop-color="#F08F92"/></linearGradient><linearGradient id="cpaint2_linear" x1="40.2" y1="27.2" x2="40.2" y2="32" gradientUnits="userSpaceOnUse"><stop stop-color="#EF777B"/><stop offset="1" stop-color="#F08F92"/></linearGradient><linearGradient id="cpaint3_linear" x1="33" y1="33.2" x2="33" y2="41.6" gradientUnits="userSpaceOnUse"><stop stop-color="#EF777B"/><stop offset="1" stop-color="#F08F92"/></linearGradient><linearGradient id="cpaint4_linear" x1="25.8" y1="27.2" x2="25.8" y2="32" gradientUnits="userSpaceOnUse"><stop stop-color="#EF777B"/><stop offset="1" stop-color="#F08F92"/></linearGradient><linearGradient id="cpaint5_linear" x1="41.55" y1="34.4" x2="41.55" y2="41.6" gradientUnits="userSpaceOnUse"><stop stop-color="#EF777B"/><stop offset="1" stop-color="#F08F92"/></linearGradient><linearGradient id="cpaint6_linear" x1="24.45" y1="34.398" x2="24.45" y2="41.6" gradientUnits="userSpaceOnUse"><stop stop-color="#EF777B"/><stop offset="1" stop-color="#F08F92"/></linearGradient></defs></svg><svg fill="none" viewBox="0 0 104 104" id="lamp" xmlns="http://www.w3.org/2000/svg"><rect x="1.773" y="15.267" width="88" height="88" rx="19" transform="rotate(-8.82 1.773 15.267)" fill="url(#dpaint0_linear)" fill-opacity=".9" stroke="url(#dpaint1_linear)" stroke-width="2"/><g clip-path="url(#dclip0)"><path d="M29.406 34.753a2.197 2.197 0 00.472 3.07l1.305.957a2.197 2.197 0 102.598-3.543l-1.305-.956a2.197 2.197 0 00-3.07.472zm19.152-11.544a2.233 2.233 0 00-1.867 2.547l.386 2.513a2.233 2.233 0 004.414-.679l-.386-2.513a2.233 2.233 0 00-2.547-1.868zM29.211 57.97a2.233 2.233 0 00-.679-4.414l-2.638.406a2.233 2.233 0 00.679 4.414l2.638-.406zm33.79 8.494c-.19-1.236.31-2.434 1.158-3.278a16.135 16.135 0 003.566-5.365c1.056-2.567 1.368-5.268.93-8.113-.663-4.308-2.745-7.74-6.262-10.319-3.517-2.58-7.415-3.534-11.724-2.871-4.308.663-7.739 2.745-10.318 6.262-2.58 3.517-3.535 7.415-2.872 11.723.438 2.848 1.528 5.335 3.267 7.473a15.178 15.178 0 005.03 4.038c1.084.544 1.943 1.546 2.136 2.8l.964 6.272a4.5 4.5 0 005.132 3.764l6.198-.954a4.5 4.5 0 003.764-5.132l-.969-6.3zm11.91-17.782a2.233 2.233 0 002.546 1.867l2.639-.406a2.233 2.233 0 10-.68-4.414l-2.638.406a2.233 2.233 0 00-1.867 2.547zm-8.634-18.456a2.169 2.169 0 003.481 2.588l.974-1.292a2.18 2.18 0 10-3.498-2.6l-.957 1.305z" fill="#9DA2C8" stroke="#6668AA"/></g><defs><linearGradient id="dpaint0_linear" x1="45.499" y1="-14.436" x2="45.499" y2="129.055" gradientUnits="userSpaceOnUse"><stop stop-color="#4C5E9D"/><stop offset="1" stop-color="#171836"/></linearGradient><linearGradient id="dpaint1_linear" x1="45.632" y1="14.432" x2="45.632" y2="104.432" gradientUnits="userSpaceOnUse"><stop stop-color="#3F458D" stop-opacity=".63"/><stop offset="1" stop-color="#3F458D" stop-opacity=".14"/></linearGradient><clipPath id="dclip0"><path fill="#fff" transform="scale(1 -1) rotate(8.744 559.288 139.166)" d="M0 0h60v56.949H0z"/></clipPath></defs></svg><svg fill="none" viewBox="0 0 24 24" id="lang" xmlns="http://www.w3.org/2000/svg"><path d="M12 22c5.523 0 10-4.477 10-10S17.523 2 12 2 2 6.477 2 12s4.477 10 10 10zM2 12h20" stroke="#D1D1D7" stroke-width="2" stroke-linecap="round" stroke-linejoin="round"/><path d="M12 2a15.3 15.3 0 014 10 15.3 15.3 0 01-4 10 15.3 15.3 0 01-4-10 15.3 15.3 0 014-10v0z" stroke="#D1D1D7" stroke-width="2" stroke-linecap="round" stroke-linejoin="round"/></svg><svg fill="none" viewBox="0 0 24 24" id="magnifier" xmlns="http://www.w3.org/2000/svg"><path d="M11 19a8 8 0 100-16 8 8 0 000 16zM21 21l-4.35-4.35" stroke="#9A9CCB" stroke-width="3" stroke-linecap="round" stroke-linejoin="round"/></svg><svg fill="none" viewBox="0 0 66 66" id="mentor" xmlns="http://www.w3.org/2000/svg"><circle cx="32.708" cy="32.708" r="23.5" transform="rotate(119.509 32.708 32.708)" stroke="url(#gpaint0_linear)"/><circle cx="53.5" cy="16.5" r=".5" fill="#6ABC9C"/><circle cx="49" cy="12" r="1" fill="#6ABC9C"/><circle cx="50.5" cy="23.5" r=".5" fill="#6ABC9C"/><circle cx="11.5" cy="45.5" r=".5" fill="#6ABC9C"/><circle cx="14" cy="39" r="1" fill="#6ABC9C"/><circle cx="6.5" cy="40.5" r=".5" fill="#6ABC9C"/><g clip-path="url(#gclip0)"><path d="M35.142 30.243c.144 0 .282.023.415.061l2.485-3.045a.457.457 0 01.645-.067.445.445 0 01.057.625l-2.457 3.012c.167.23.267.515.267.822 0 .572-.343 1.066-.833 1.286h9.639a.64.64 0 00.64-.64V24.19a.64.64 0 00-.64-.64H33.116a.64.64 0 00-.64.64v5.323l.579.732h2.087v-.002z" fill="url(#gpaint1_linear)"/><path d="M27.156 26.744a2.623 2.623 0 100-5.246 2.623 2.623 0 000 5.246z" fill="url(#gpaint2_linear)"/><path d="M29.845 43.861a.64.64 0 01-.64.64H28.13a.64.64 0 01-.64-.64v-5.368a.343.343 0 00-.687 0v5.343c0 .366-.3.666-.665.666h-1.053a.64.64 0 01-.64-.64L24.438 30.9a.318.318 0 10-.635 0v4.984a.64.64 0 01-.64.64h-.523a.64.64 0 01-.64-.64v-6.833c0-.812.658-1.468 1.468-1.468H29.3c.625 0 1.216.287 1.606.776l1.567 1.977.33.418s1.486 0 2.342.003a.64.64 0 01.64.64v.51a.64.64 0 01-.64.64h-2.772a.892.892 0 01-.701-.34l-1.168-1.502a.32.32 0 00-.251-.123h-.08a.318.318 0 00-.317.318l-.01 12.96z" fill="url(#gpaint3_linear)"/></g><defs><linearGradient id="gpaint0_linear" x1="32.708" y1="8.708" x2="32.708" y2="56.708" gradientUnits="userSpaceOnUse"><stop stop-color="#4DB88D"/><stop offset="1" stop-color="#2C2E59"/></linearGradient><linearGradient id="gpaint1_linear" x1="39.238" y1="23.55" x2="39.238" y2="32.937" gradientUnits="userSpaceOnUse"><stop stop-color="#4DB68D"/><stop offset="1" stop-color="#8CC3AE"/></linearGradient><linearGradient id="gpaint2_linear" x1="27.156" y1="21.498" x2="27.156" y2="26.744" gradientUnits="userSpaceOnUse"><stop stop-color="#4DB68D"/><stop offset="1" stop-color="#8CC3AE"/></linearGradient><linearGradient id="gpaint3_linear" x1="28.893" y1="27.584" x2="28.893" y2="44.502" gradientUnits="userSpaceOnUse"><stop stop-color="#4DB68D"/><stop offset="1" stop-color="#8CC3AE"/></linearGradient><clipPath id="gclip0"><path fill="#fff" transform="translate(22 21)" d="M0 0h24v24H0z"/></clipPath></defs></svg><svg fill="none" viewBox="0 0 6 5" id="open" xmlns="http://www.w3.org/2000/svg"><path d="M3 5L5.598.5H.402L3 5z" fill="#D1D1D7"/></svg><svg viewBox="0 0 33 37" id="play" xmlns="http://www.w3.org/2000/svg"><path d="M31.682 17.439a1.706 1.706 0 010 2.955L3.532 36.646c-1.137.657-2.558-.164-2.558-1.478V2.664a1.706 1.706 0 012.559-1.478l28.15 16.253z" fill-opacity=".81"/></svg><svg fill="none" viewBox="0 0 24 24" id="plus" xmlns="http://www.w3.org/2000/svg"><g opacity=".5" stroke="#171836" stroke-width="3" stroke-linecap="round" stroke-linejoin="round"><path d="M12 5v14M5 12h14"/></g></svg></svg>