<svg width="24" height="24" viewBox="0 0 24 24" fill="none" xmlns="http://www.w3.org/2000/svg">
<g clip-path="url(#clip0)">
<path d="M19.7342 17.2794H4.92284C4.69655 17.2794 4.48514 17.1644 4.35773 16.9721C2.40353 14.0251 2.25362 8.35622 2.24227 7.51469C2.24157 7.48171 2.24121 7.44836 2.24121 7.41519C2.24121 7.02723 2.54671 6.71252 2.92398 6.71179H2.92539C3.30195 6.71179 3.60798 7.02504 3.6094 7.41246C3.6094 7.4172 3.60958 7.45874 3.61117 7.53236C3.67142 9.53377 5.27352 11.1427 7.23411 11.1427C9.23279 11.1427 10.8588 9.47054 10.8588 7.41519C10.8588 7.02668 11.1652 6.71179 11.5428 6.71179H13.1141C13.4919 6.71179 13.7981 7.02668 13.7981 7.41519C13.7981 9.47054 15.4243 11.1427 17.423 11.1427C19.3853 11.1427 20.9885 9.53086 21.0461 7.5269C21.0473 7.45656 21.0477 7.4172 21.0477 7.41264C21.0491 7.02504 21.3549 6.71179 21.7317 6.71179H21.7329C22.1102 6.71252 22.4157 7.02723 22.4157 7.41519C22.4157 7.44854 22.4153 7.48171 22.4148 7.51487C22.4033 8.35622 22.2534 14.0253 20.2993 16.9723C20.1719 17.1644 19.9604 17.2794 19.7342 17.2794Z" fill="#F79C6E"/>
<path d="M21.7328 6.71179C21.7324 6.71179 21.7321 6.71179 21.7315 6.71179C21.355 6.71179 21.0489 7.02505 21.0475 7.41247C21.0475 7.41721 21.0474 7.45657 21.0459 7.52691C20.9883 9.53073 19.3852 11.1427 17.4228 11.1427C15.4241 11.1427 13.7981 9.47059 13.7981 7.4152C13.7981 7.02669 13.4917 6.71179 13.114 6.71179H12.3285V17.2794H19.7341C19.9604 17.2794 20.1718 17.1644 20.2992 16.9723C22.2534 14.0253 22.4033 8.35606 22.4147 7.5147C22.4154 7.48172 22.4157 7.44837 22.4157 7.4152C22.4156 7.02723 22.1101 6.71252 21.7328 6.71179Z" fill="#F6844B"/>
<path d="M12.3284 4.31018C11.0041 4.31018 9.92664 5.38765 9.92664 6.712C9.92664 8.03635 11.0041 9.11363 12.3284 9.11363C13.6527 9.11363 14.7301 8.03635 14.7301 6.712C14.7301 5.38765 13.6527 4.31018 12.3284 4.31018Z" fill="#F6844B"/>
<path d="M12.3285 4.31018V9.11363C13.6529 9.11344 14.7302 8.0362 14.7302 6.7119C14.7302 5.38761 13.6527 4.31037 12.3285 4.31018Z" fill="#F47434"/>
<path d="M2.96181 5.75122C1.76989 5.75122 0.800171 6.82865 0.800171 8.15295C0.800171 9.47724 1.76989 10.5547 2.96181 10.5547C4.15373 10.5547 5.12327 9.47724 5.12327 8.15295C5.12327 6.82865 4.15373 5.75122 2.96181 5.75122Z" fill="#F6844B"/>
<path d="M21.695 5.75122C20.5031 5.75122 19.5336 6.82869 19.5336 8.15304C19.5336 9.4772 20.5031 10.5547 21.695 10.5547C22.887 10.5547 23.8567 9.4772 23.8567 8.15304C23.8567 6.82869 22.887 5.75122 21.695 5.75122Z" fill="#F47434"/>
<path d="M19.8039 19.6811H4.85304C4.47169 19.6811 4.1626 19.3571 4.1626 18.9574V16.7991H20.4943V18.9574C20.4943 19.3571 20.1852 19.6811 19.8039 19.6811Z" fill="#F6844B"/>
<path d="M12.3285 19.6811H19.8039C20.1853 19.6811 20.4944 19.3571 20.4944 18.9574V16.7991H12.3285V19.6811Z" fill="#F47434"/>
</g>
<defs>
<clipPath id="clip0">
<rect width="23.0565" height="23.0565" fill="white" transform="translate(0.800049 0.467407)"/>
</clipPath>
</defs>
</svg>
