<svg width="125" height="86" viewBox="0 0 125 86" xmlns="http://www.w3.org/2000/svg">
<path d="M5.21752 85.2413C4.20451 85.2413 3.22205 85.1071 2.27008 84.8389C1.3303 84.5584 0.573634 84.1988 0 83.7599L1.00689 81.5286C1.5561 81.931 2.20904 82.254 2.96575 82.4979C3.72245 82.7419 4.47912 82.8637 5.23582 82.8637C6.07795 82.8637 6.70039 82.7419 7.10315 82.4979C7.50591 82.2419 7.70728 81.9065 7.70728 81.492C7.70728 81.1873 7.58536 80.9371 7.34114 80.7422C7.10937 80.5348 6.80401 80.3702 6.42579 80.2484C6.05964 80.1266 5.55924 79.9923 4.9246 79.846C3.94821 79.6145 3.14882 79.3826 2.52638 79.151C1.90394 78.9195 1.36692 78.5475 0.915354 78.0354C0.475984 77.5233 0.256298 76.8404 0.256298 75.987C0.256298 75.2434 0.457677 74.5725 0.860432 73.9752C1.26319 73.3655 1.86732 72.8841 2.67283 72.5304C3.49054 72.1767 4.48523 72 5.65689 72C6.47448 72 7.27414 72.0977 8.05512 72.2926C8.8361 72.4876 9.51968 72.7681 10.1055 73.1339L9.19016 75.3835C8.00642 74.713 6.82232 74.3776 5.63858 74.3776C4.80865 74.3776 4.19232 74.5118 3.78957 74.7799C3.399 75.0481 3.20374 75.4018 3.20374 75.8407C3.20374 76.2796 3.42954 76.6089 3.8811 76.8283C4.34489 77.0357 5.04664 77.2427 5.98642 77.4501C6.96292 77.6817 7.7622 77.9136 8.38465 78.1451C9.00709 78.3767 9.53799 78.7425 9.97736 79.2425C10.4288 79.7425 10.6547 80.4192 10.6547 81.2726C10.6547 82.0041 10.4471 82.6746 10.0323 83.2844C9.62953 83.8817 9.01917 84.3572 8.20157 84.7109C7.38398 85.0646 6.38917 85.2413 5.21752 85.2413ZM22.0362 82.2785H16.0864L14.9514 85.0218H11.9124L17.6242 72.2195H20.5534L26.2835 85.0218H23.1713L22.0362 82.2785ZM21.1026 80.0289L19.0705 75.1274L17.0384 80.0289H21.1026ZM31.494 74.5971V77.9805H37.4255V80.3581H31.494V85.0218H28.5283V72.2195H38.2127V74.5971H31.494ZM51.0585 82.6442V85.0218H41.136V72.2195H50.8205V74.5971H44.0835V77.377H50.0333V79.6814H44.0835V82.6442H51.0585ZM66.0867 72.2195V85.0218H63.121V79.7729H57.2993V85.0218H54.3336V72.2195H57.2993V77.2673H63.121V72.2195H66.0867ZM76.2399 85.2413C74.9097 85.2413 73.7076 84.9549 72.6334 84.3817C71.5716 83.8085 70.7356 83.0221 70.1253 82.0224C69.5274 81.0103 69.2282 79.8764 69.2282 78.6206C69.2282 77.3649 69.5274 76.2368 70.1253 75.2372C70.7356 74.2251 71.5716 73.4328 72.6334 72.8596C73.7076 72.2864 74.9097 72 76.2399 72C77.5704 72 78.7662 72.2864 79.828 72.8596C80.8899 73.4328 81.7261 74.2251 82.3361 75.2372C82.9465 76.2368 83.2515 77.3649 83.2515 78.6206C83.2515 79.8764 82.9465 81.0103 82.3361 82.0224C81.7261 83.0221 80.8899 83.8085 79.828 84.3817C78.7662 84.9549 77.5704 85.2413 76.2399 85.2413ZM76.2399 82.7174C76.9967 82.7174 77.6803 82.5466 78.2903 82.2053C78.9006 81.8516 79.3766 81.364 79.7182 80.7422C80.0723 80.1203 80.2491 79.4133 80.2491 78.6206C80.2491 77.828 80.0723 77.1209 79.7182 76.4991C79.3766 75.8773 78.9006 75.3956 78.2903 75.0543C77.6803 74.7006 76.9967 74.5239 76.2399 74.5239C75.4834 74.5239 74.7998 74.7006 74.1895 75.0543C73.5795 75.3956 73.0973 75.8773 72.7432 76.4991C72.4016 77.1209 72.2306 77.828 72.2306 78.6206C72.2306 79.4133 72.4016 80.1203 72.7432 80.7422C73.0973 81.364 73.5795 81.8516 74.1895 82.2053C74.7998 82.5466 75.4834 82.7174 76.2399 82.7174ZM92.0894 85.2413C90.2587 85.2413 88.8307 84.7354 87.8055 83.7233C86.7924 82.7112 86.286 81.2663 86.286 79.3888V72.2195H89.2518V79.2791C89.2518 81.5714 90.2038 82.7174 92.1077 82.7174C93.0351 82.7174 93.7433 82.4431 94.2313 81.8944C94.7194 81.3337 94.9636 80.4616 94.9636 79.2791V72.2195H97.8927V79.3888C97.8927 81.2663 97.3801 82.7112 96.3549 83.7233C95.3418 84.7354 93.9201 85.2413 92.0894 85.2413ZM105.949 85.2413C104.937 85.2413 103.954 85.1071 103.002 84.8389C102.062 84.5584 101.306 84.1988 100.732 83.7599L101.739 81.5286C102.288 81.931 102.941 82.254 103.698 82.4979C104.454 82.7419 105.211 82.8637 105.968 82.8637C106.81 82.8637 107.432 82.7419 107.835 82.4979C108.238 82.2419 108.439 81.9065 108.439 81.492C108.439 81.1873 108.317 80.9371 108.073 80.7422C107.841 80.5348 107.536 80.3702 107.158 80.2484C106.791 80.1266 106.291 79.9923 105.656 79.846C104.68 79.6145 103.881 79.3826 103.258 79.151C102.636 78.9195 102.099 78.5475 101.647 78.0354C101.208 77.5233 100.988 76.8404 100.988 75.987C100.988 75.2434 101.189 74.5725 101.592 73.9752C101.995 73.3655 102.599 72.8841 103.405 72.5304C104.223 72.1767 105.217 72 106.389 72C107.207 72 108.006 72.0977 108.787 72.2926C109.568 72.4876 110.251 72.7681 110.837 73.1339L109.922 75.3835C108.738 74.713 107.554 74.3776 106.37 74.3776C105.541 74.3776 104.924 74.5118 104.521 74.7799C104.131 75.0481 103.936 75.4018 103.936 75.8407C103.936 76.2796 104.161 76.6089 104.613 76.8283C105.077 77.0357 105.779 77.2427 106.718 77.4501C107.695 77.6817 108.494 77.9136 109.116 78.1451C109.739 78.3767 110.27 78.7425 110.709 79.2425C111.161 79.7425 111.387 80.4192 111.387 81.2726C111.387 82.0041 111.179 82.6746 110.764 83.2844C110.361 83.8817 109.751 84.3572 108.933 84.7109C108.116 85.0646 107.121 85.2413 105.949 85.2413ZM124.251 82.6442V85.0218H114.328V72.2195H124.013V74.5971H117.276V77.377H123.226V79.6814H117.276V82.6442H124.251Z"/>
<path clip-rule="evenodd" d="M18 43.9699L62.0132 0L62.0179 0.00470263L62.0182 0.00438243L80.9375 18.8521V7.37229H87.9375V25.8256L106.155 43.9744L100.459 49.6646L62.0215 11.3722L23.6958 49.6602L18 43.9699ZM55.3477 35.4856H68.8949V58.8956H55.3477V35.4856Z"/>
</svg>
