<svg width="23" height="30" viewBox="0 0 23 30" xmlns="http://www.w3.org/2000/svg">
<path d="M14.679 8.29356e-06C14.6481 0.000692832 14.6172 0.00367193 14.5867 0.00892208H0V30H22.9915V29.348V8.59417C23.0029 8.52377 23.0029 8.45192 22.9915 8.38152V8.2147L22.868 8.08863C22.8342 8.04325 22.7948 8.00258 22.7507 7.96766C22.7495 7.96681 22.7482 7.96596 22.747 7.96512L15.1942 0.254688C15.1597 0.208694 15.1195 0.167584 15.0744 0.132442L14.9534 0.00892208H14.7875C14.7517 0.00280318 14.7154 -0.000178903 14.679 8.29356e-06ZM1.2773 1.31288H14.0503V9.13664H21.7141V28.696H1.2773V1.31288ZM15.3276 2.23482L20.8111 7.83268H15.3276V2.23482ZM5.10921 13.0485V14.3525H17.8822V13.0485H5.10921ZM5.10921 16.9604V18.2644H15.3276V16.9604H5.10921ZM5.10921 20.8723V22.1762H17.8822V20.8723H5.10921Z" />
</svg>
