<svg width="98" height="98" viewBox="0 0 98 98" fill="none" xmlns="http://www.w3.org/2000/svg">
<path d="M108 -117L215 -10.0001L108 96.9999C108 96.9999 89.5 53.5 59 38C28.5 22.5 1.00006 -10.0001 1.00006 -10.0001L108 -117Z" fill="#F5453D"/>
<path d="M48.4218 14.411L49.753 15.2638L51.3437 12.7807L52.7503 13.6817C54.4475 14.7689 56.0117 14.3337 56.9174 12.9199C57.8161 11.5169 57.5751 9.91009 55.8851 8.82747L53.1292 7.06217L48.4218 14.411ZM52.0447 11.6862L53.7479 9.02731L54.968 9.80882C55.9655 10.4478 56.0621 11.2688 55.561 12.051C55.0599 12.8333 54.2623 13.1067 53.2719 12.4723L52.0447 11.6862ZM57.1235 20.1369C58.7382 21.1713 60.4931 20.6912 61.585 18.9867C62.6791 17.2787 62.3838 15.4802 60.769 14.4459C59.1543 13.4115 57.3971 13.8952 56.303 15.6032C55.2112 17.3077 55.5088 19.1025 57.1235 20.1369ZM57.7973 19.1009C56.9038 18.5285 56.9763 17.4515 57.6222 16.4432C58.2681 15.4349 59.223 14.908 60.1165 15.4803C60.9957 16.0435 60.9162 17.1312 60.2704 18.1396C59.6245 19.1479 58.6764 19.664 57.7973 19.1009ZM59.612 24.4941L60.9109 25.3262L62.7912 22.3909L62.845 22.4254C62.7921 22.9583 62.8582 23.7952 63.8055 24.402C65.1045 25.2341 66.7366 24.8272 67.8997 23.0115C69.0765 21.1743 68.7144 19.5355 67.4406 18.7195C66.4681 18.0966 65.688 18.4217 65.2355 18.6936L65.1601 18.6453L65.744 17.7339L64.4665 16.9156L59.612 24.4941ZM63.9751 20.4874C64.6601 19.4181 65.563 19.0198 66.3991 19.5553C67.2638 20.1093 67.2376 21.1299 66.5802 22.1562C65.9182 23.1896 64.9834 23.6535 64.1258 23.1042C63.2969 22.5732 63.2901 21.5567 63.9751 20.4874ZM72.2492 26.405C71.7113 27.2446 70.8454 27.277 70.2713 26.9092C69.6469 26.5093 69.5134 25.8013 69.9616 25.1016L72.0809 21.7932L70.7819 20.9611L68.5339 24.4704C67.6858 25.7945 67.9589 27.0272 69.0426 27.7213C69.8679 28.25 70.7273 28.1882 71.3738 27.7319L71.4313 27.7687L70.8038 28.7483L72.0632 29.5551L75.5938 24.0435L74.2949 23.2114L72.2492 26.405ZM79.4054 23.894L78.1064 23.0619L73.399 30.4107L74.6979 31.2428L79.4054 23.894ZM77.5485 33.2256C78.4132 33.7796 79.1897 33.7051 79.723 33.3939L79.7661 33.4215L79.2811 34.1786L80.5298 34.9785L82.8927 31.2898C83.826 29.8329 82.9187 28.6343 81.8673 27.9608C80.7083 27.2184 79.4874 27.1651 78.5567 27.9859L79.6592 28.9351C80.0298 28.641 80.6026 28.5526 81.2378 28.9594C81.8406 29.3456 81.973 29.8656 81.626 30.4075L81.6122 30.429C81.3731 30.8022 80.9705 30.5696 79.9314 30.0507C78.7885 29.4806 77.5613 29.1448 76.766 30.3864C76.0718 31.47 76.4971 32.5522 77.5485 33.2256ZM78.4972 32.4872C77.9553 32.1401 77.7264 31.6443 78.0321 31.1671C78.3516 30.6683 78.9191 30.7383 79.5533 31.0281C79.9241 31.1998 80.661 31.5504 80.917 31.5221L80.5009 32.1716C80.1079 32.7852 79.2794 32.9883 78.4972 32.4872ZM81.8359 35.8152L83.1349 36.6473L85.2105 33.4071C85.6587 32.7073 86.5034 32.55 87.2175 33.0075C87.4364 33.1477 87.6838 33.3618 87.772 33.469L88.5375 32.2741C88.4328 32.1767 88.2375 32.0313 88.094 31.9394C87.4624 31.5348 86.7051 31.5558 86.095 32.0658L86.0376 32.029L86.626 31.1104L85.3665 30.3036L81.8359 35.8152Z" fill="white" fill-opacity="0.8"/>
</svg>
