<svg width="30" height="30" viewBox="0 0 30 30" xmlns="http://www.w3.org/2000/svg">
<path d="M24.3742 27.1895H24.2148C5.79291 26.1301 3.17729 10.5863 2.81166 5.84258C2.7822 5.47375 2.82581 5.10273 2.93998 4.75078C3.05416 4.39883 3.23666 4.07286 3.47702 3.79156C3.71739 3.51027 4.0109 3.27916 4.34074 3.11149C4.67057 2.94382 5.03025 2.84288 5.39916 2.81445H10.5648C10.9403 2.81409 11.3073 2.92649 11.6182 3.13711C11.9291 3.34772 12.1696 3.64683 12.3085 3.9957L13.7335 7.50195C13.8707 7.84278 13.9048 8.2164 13.8315 8.57641C13.7581 8.93643 13.5806 9.26696 13.321 9.52695L11.3242 11.5426C11.6361 13.3152 12.485 14.9491 13.7559 16.2235C15.0269 17.4978 16.6587 18.351 18.4304 18.6676L20.4648 16.652C20.7287 16.3952 21.0623 16.2219 21.4241 16.1535C21.7859 16.0852 22.1598 16.1248 22.4992 16.2676L26.0335 17.6832C26.3771 17.8265 26.6703 18.0689 26.8757 18.3795C27.081 18.69 27.1893 19.0547 27.1867 19.427V24.377C27.1867 25.1229 26.8903 25.8382 26.3629 26.3657C25.8355 26.8931 25.1201 27.1895 24.3742 27.1895ZM5.62416 4.68945C5.37552 4.68945 5.13707 4.78823 4.96125 4.96404C4.78544 5.13986 4.68666 5.37831 4.68666 5.62695V5.70195C5.11791 11.252 7.88354 24.377 24.3179 25.3145C24.4411 25.3221 24.5645 25.3053 24.6812 25.2651C24.7979 25.2249 24.9054 25.162 24.9978 25.0802C25.0901 24.9983 25.1653 24.899 25.2192 24.788C25.2731 24.677 25.3045 24.5564 25.3117 24.4332V19.427L21.7773 18.0113L19.0867 20.6832L18.6367 20.627C10.4804 19.6051 9.37416 11.4488 9.37416 11.3645L9.31791 10.9145L11.9804 8.22383L10.5742 4.68945H5.62416Z"/>
</svg>
