<svg width="30" height="30" viewBox="0 0 30 30" xmlns="http://www.w3.org/2000/svg">
<path d="M9.77383 26.2628C20.3876 26.2628 26.1918 17.4697 26.1918 9.84489C26.1918 9.59515 26.1866 9.34644 26.1755 9.09911C27.302 8.28454 28.2812 7.26804 29.0538 6.11102C28.02 6.57077 26.9071 6.87984 25.7401 7.01968C26.9314 6.30503 27.8461 5.17502 28.2774 3.82794C27.1626 4.48892 25.9278 4.96914 24.6134 5.22851C23.5604 4.10692 22.0611 3.40552 20.4012 3.40552C17.2148 3.40552 14.6305 5.98959 14.6305 9.17496C14.6305 9.628 14.6812 10.0683 14.7801 10.4907C9.98435 10.2494 5.73156 7.95345 2.88586 4.46192C2.39051 5.31451 2.10465 6.3052 2.10465 7.36229C2.10465 9.36399 3.12339 11.1316 4.6724 12.1653C3.72573 12.1362 2.8365 11.8763 2.05908 11.4438C2.05822 11.468 2.05822 11.4916 2.05822 11.5174C2.05822 14.312 4.04719 16.6453 6.68786 17.174C6.20283 17.3059 5.69251 17.377 5.1662 17.377C4.79503 17.377 4.43315 17.3405 4.08159 17.2729C4.81619 19.5656 6.94654 21.234 9.47215 21.2808C7.4971 22.8287 5.00917 23.7508 2.3052 23.7508C1.84012 23.7508 1.38038 23.7241 0.928711 23.6708C3.48252 25.3077 6.515 26.263 9.774 26.263" />
</svg>
